<svg version="1.0" xmlns="http://www.w3.org/2000/svg" width="794.667" height="920" viewBox="0 0 596 690"><path d="M274 139.1c-45.4 5.2-81.1 17.7-115.6 40.5C69 238.5 26.1 346.5 51.1 449.6c11.1 45.6 32.1 84 64.4 117.3 62.2 64.3 153.7 90.9 240.5 69.9 38.4-9.3 71.2-25.6 101.6-50.6C515.7 538.6 550 466.1 550 391c0-31.2-6.7-65.3-18.6-95-24.5-61.1-74-111.4-135.7-137.8-36.9-15.8-84.7-23.3-121.7-19.1zm53 34.5c54.8 7.8 103.4 34.8 139.2 77.2 25.1 29.9 43.4 70.2 48.7 107.2 4.1 28.3 4 39.9 0 68-6.8 47.8-34.3 98.4-70.4 129.9-29.5 25.7-59.3 41.5-95.5 50.5-16.2 4-22.9 4.8-44.5 5.5-35.7 1.1-58.2-2.7-88.7-14.8-56.2-22.3-101.7-68.1-124.3-124.9-11.6-29.3-17.1-64.9-14.6-95 4.2-52.5 24.8-99.2 60.3-136.7 33.4-35.3 75.5-57.7 124.8-66.4 16.4-2.9 46.3-3.2 65-.5z"/><path d="M212.5 297.4c-9.7 1.7-17.2 4.2-23.9 7.9-6.8 3.8-20.5 13.9-20.6 15 0 .5 3.3 4.8 7.4 9.5 4.1 4.8 8.3 9.8 9.4 11.1l1.9 2.4 5.4-4c12.5-9.3 22.2-13.3 33-13.3 8.2 0 12.5 1.7 17.1 6.8 5.9 6.5 6.2 18.1.7 29.7-4.2 9-13 19.1-45.4 52l-29.5 30 .3 12.5.2 12.5h118v-29l-36.7-.3c-30.8-.2-36.8-.5-36.8-1.6 0-.8 5.7-6.8 12.7-13.3 33.2-30.7 42.2-40.7 49.2-54.3 5.7-10.9 7.4-18.4 6.9-30.6-.3-9.3-.6-10.7-4.1-17.6-6-12.2-16.5-20.3-31.4-24.4-7.7-2.1-25-2.6-33.8-1zm144.9 24.8c-8.7 12.8-19.9 29.4-24.9 36.8-5 7.4-14.9 21.9-21.9 32.2l-12.7 18.7.3 11.8.3 11.8 36.5.5 36.5.5.5 17.5.5 17.5h33l.5-17.5.5-17.5 10-.5 10-.5v-26l-10-.5-10-.5-.3-53.8-.2-53.7h-32.8l-15.8 23.2zm14.7 21c.2.7.2 15.2-.1 32.3l-.5 31-20.2.3c-15.2.2-20.3-.1-20.3-.9 0-.7 7.6-12.8 16.9-26.9 9.4-14.2 18.2-28.3 19.8-31.4 2.7-5.6 3.8-6.7 4.4-4.4z"/></svg>