<svg xmlns="http://www.w3.org/2000/svg" height="62.723" width="56.112" xml:space="preserve" id="svg2" version="1.1"><defs id="defs6"><clipPath id="clipPath18" clipPathUnits="userSpaceOnUse"><path id="path16" d="M0 47.042h42.084V0H0z"/></clipPath></defs><g transform="matrix(1.33333 0 0 -1.33333 0 62.723)" id="g10"><g id="g12"><g clip-path="url(#clipPath18)" id="g14"><g transform="translate(34.144 33.034)" id="g20"><path id="path22" d="M0 0h-26.199c-.009-.11-.018-.22-.018-.333v-18.755c0-1.926 1.457-3.49 3.317-3.627v-7.434a2.884 2.884 0 115.77 0v7.42h8.058v-7.42a2.884 2.884 0 115.77 0v7.434c1.859.137 3.316 1.701 3.316 3.627V-.333C.014-.22.01-.11 0 0" fill="#a4c639" fill-opacity="1" fill-rule="nonzero" stroke="none"/></g><g transform="translate(2.886 31.364)" id="g24"><path id="path26" d="M0 0a2.886 2.886 0 002.886-2.885v-12.378a2.885 2.885 0 10-5.772 0v12.378A2.885 2.885 0 000 0" fill="#a4c639" fill-opacity="1" fill-rule="nonzero" stroke="none"/></g><g transform="translate(39.198 31.364)" id="g28"><path id="path30" d="M0 0a2.885 2.885 0 002.886-2.885v-12.378a2.885 2.885 0 10-5.771 0v12.378A2.884 2.884 0 000 0" fill="#a4c639" fill-opacity="1" fill-rule="nonzero" stroke="none"/></g><g transform="translate(14.18 40.239)" id="g32"><path id="path34" d="M0 0c-.001.805.665 1.46 1.489 1.462.824.002 1.494-.648 1.497-1.454V0c.002-.805-.664-1.46-1.488-1.462C.673-1.464.003-.813 0-.008zm11.143 0c-.002.805.664 1.46 1.488 1.462.827.002 1.494-.648 1.498-1.454V0c.002-.805-.664-1.46-1.49-1.462-.823-.002-1.493.649-1.496 1.454zM-6.15-5.163h26.025c-.039 2.783-1.234 5.322-3.186 7.275l2.446 4.235a.304.304 0 01-.527.304l-2.372-4.107c-2.052 1.853-6.249 3.4-9.374 3.4-3.016 0-7.322-1.547-9.374-3.4l-2.372 4.108a.304.304 0 01-.526-.304l2.445-4.235C-4.915.159-6.112-2.38-6.15-5.163" fill="#a4c639" fill-opacity="1" fill-rule="nonzero" stroke="none"/></g></g></g></g></svg>