<svg xmlns="http://www.w3.org/2000/svg" height="75.669" width="61.613" xml:space="preserve" id="svg2" version="1.1"><defs id="defs6"><clipPath id="clipPath18" clipPathUnits="userSpaceOnUse"><path id="path16" d="M0 56.751h46.21V0H0z"/></clipPath></defs><g transform="matrix(1.33333 0 0 -1.33333 0 75.669)" id="g10"><g id="g12"><g clip-path="url(#clipPath18)" id="g14"><g transform="translate(31.452 47.69)" id="g20"><path id="path22" d="M0 0c1.982 2.4 3.316 5.739 2.952 9.062-2.856-.115-6.311-1.904-8.36-4.302-1.836-2.123-3.445-5.521-3.01-8.778C-5.234-4.264-1.982-2.399 0 0m7.141-21.088c.08-8.59 7.535-11.447 7.617-11.482-.063-.203-1.191-4.075-3.928-8.073-2.365-3.457-4.82-6.901-8.687-6.973-3.799-.07-5.022 2.253-9.366 2.253-4.344 0-5.702-2.182-9.298-2.323-3.732-.142-6.576 3.739-8.96 7.184-4.875 7.046-8.599 19.91-3.598 28.593 2.484 4.313 6.925 7.043 11.744 7.114 3.666.069 7.126-2.466 9.365-2.466 2.241 0 6.445 3.049 10.866 2.601 1.85-.077 7.043-.747 10.379-5.629-.269-.168-6.197-3.62-6.134-10.799" fill="#fff" fill-opacity="1" fill-rule="nonzero" stroke="none"/></g></g></g></g></svg>