<svg id="svg" version="1.1" xmlns="http://www.w3.org/2000/svg" width="400" height="463.087"><g id="svgg" stroke="none" fill-rule="evenodd"><path id="path0" d="M189.175 92.956c-.124.125-1.204.316-2.4.424-8.248.747-11.108 1.086-15.175 1.794-6.837 1.192-9.205 1.664-11.2 2.233-.99.283-2.43.641-3.2.796-.77.155-2.93.731-4.8 1.28-1.87.549-3.94 1.146-4.6 1.326-.66.18-2.46.803-4 1.384-1.54.581-3.341 1.197-4.003 1.368-.662.171-1.562.504-2 .741-.438.236-1.787.824-2.997 1.305-30.312 12.069-59.371 36.006-77.006 63.434-3.741 5.818-4.037 6.289-4.99 7.959-.502.88-1.274 2.23-1.716 3-1.71 2.981-5.899 11.603-7.676 15.8-2.506 5.918-2.243 5.241-4.581 11.8-1.582 4.441-4.407 15.049-5.592 21-6.814 34.215-3.003 70.215 10.755 101.6.566 1.291 6.399 13.143 6.792 13.8.197.33 1.397 2.4 2.665 4.6 2.539 4.402 6.244 9.949 9.704 14.526a633.423 633.423 0 013.045 4.055c9.691 13.14 27.764 29.211 44.42 39.501 6.356 3.927 14.997 8.38 21.98 11.326 2.2.929 4.54 1.917 5.2 2.198 7.39 3.135 23.956 7.697 32.6 8.976 1.43.212 3.77.563 5.2.779 17.43 2.644 38.413 2.108 56-1.429 1.65-.332 3.968-.774 5.152-.981 1.183-.208 2.477-.552 2.874-.765.397-.212 1.148-.386 1.67-.386s2.019-.34 3.326-.755c1.308-.416 4.268-1.345 6.578-2.066 13.024-4.065 31.359-12.774 41.117-19.53 35.731-24.741 60.692-58.69 70.119-95.367 2.709-10.539 3.576-14.724 4.741-22.882 1.208-8.46 1.423-11.96 1.423-23.2 0-13.086-.309-17.184-2.205-29.2-.483-3.059-1.499-7.818-2.228-10.435-.312-1.119-.567-2.328-.567-2.686 0-.358-.247-1.422-.55-2.365-.302-.943-.946-3.064-1.43-4.714-.485-1.65-1.138-3.591-1.451-4.314-.313-.722-.575-1.622-.583-2-.007-.377-.361-1.406-.786-2.286-.425-.88-.779-1.802-.786-2.049-.012-.39-.831-2.477-2.022-5.151-.196-.44-.822-1.937-1.391-3.327-1.491-3.644-7.295-14.846-9.947-19.2-18.535-30.432-46.136-54.57-77.654-67.913-2.86-1.211-5.56-2.367-6-2.57-.44-.203-1.52-.615-2.4-.916-.88-.301-2.95-1.012-4.6-1.581-3.978-1.371-10.652-3.358-12.4-3.692a57.42 57.42 0 01-3.4-.809c-4.211-1.142-14.484-2.922-19.808-3.432-2.306-.221-4.822-.501-5.592-.621-1.983-.311-23.353-.657-23.625-.383m5.48 22.844c.276.718 10.945.913 10.945.2 0-.715 8.237-.506 8.971.229.346.345.629.795.629 1 0 .204.855.375 1.9.38 1.267.006 2.233.269 2.9.791.792.619 1.64.784 4.071.791 2.188.006 3.245.182 3.672.609.83.831 1.734.816 1.043-.017-.728-.877.07-1.556 1.427-1.216.814.205 1.022.457.866 1.051-.165.634.001.782.882.782.597 0 1.435.264 1.863.587 1.011.765 1.813.774 1.522.016-.3-.781 1.021-1.303 1.468-.58.183.296.244.682.136.858-.108.175.22.319.73.319s1.152.36 1.427.8c.377.604.933.8 2.268.8 1.038 0 2.016.248 2.368.6.779.779 1.094.763.786-.04-.252-.658.582-1.462 1.152-1.11.175.108.319.547.319.974 0 .427.248.776.551.776.303 0 .775.27 1.049.6.654.788 1.125.763 1.056-.057-.031-.361.169-.736.444-.833.275-.097.5.034.5.293 0 .93 2.183 2.797 3.27 2.797.59 0 1.343.27 1.673.6.33.33 1.133.6 1.786.6.685 0 1.283.253 1.416.6.126.33.684.6 1.239.6.576 0 1.224.343 1.509.8.335.537.933.8 1.816.8.801 0 1.406.235 1.546.6.127.33.661.6 1.188.6.526 0 .957.189.957.42 0 .232.585.684 1.3 1.006 1.223.551 1.681.79 3.4 1.775.385.22 1.067.562 1.516.758.449.197 1.057.646 1.349.999.293.353.849.642 1.235.642.386 0 .926.27 1.2.6.274.33.746.6 1.049.6.303 0 .551.168.551.373s.405.501.9.657c.495.157 1.17.593 1.5.97.33.377 1.005.813 1.5.97.495.156.9.452.9.657 0 .205.193.373.429.373.235 0 .681.225.99.5.308.275 1.037.86 1.618 1.3.582.44 1.397 1.115 1.811 1.5.413.385.907.7 1.096.7.189 0 .954.628 1.7 1.396.746.767 1.547 1.397 1.781 1.4.234.002.943.544 1.575 1.204.632.66 1.386 1.2 1.675 1.2.289 0 .525.276.525.613 0 .336.315.732.7.878.813.309 12.9 12.46 12.9 12.968 0 .188.27.341.6.341.33 0 .6.192.6.427 0 .38 1.531 2.628 2.6 3.818.22.245 1.03 1.215 1.8 2.155.77.94 1.625 1.942 1.9 2.226.275.284.5.71.5.945 0 .236.177.429.392.429.216 0 .501.433.634.962.133.529.587 1.053 1.008 1.163.428.112.766.548.766.989 0 .433.27 1.012.6 1.286.33.274.6.727.6 1.006 0 .28.27.612.6.739.33.126.6.594.6 1.039 0 .445.36 1.034.8 1.309.44.275.8.704.8.954s.27.679.6.953c.33.274.6.926.6 1.449 0 .579.235.951.6.951.346 0 .6.361.6.853 0 .469.315 1.144.7 1.5.385.356.995 1.277 1.355 2.047 1.91 4.084 2.934 6.069 3.223 6.248.177.11.322.617.322 1.127s.27 1.151.6 1.425c.33.274.6.997.6 1.606 0 .616.266 1.211.6 1.339.33.126.604.641.609 1.142.005.502.361 1.363.791 1.913.43.55.786 1.585.791 2.3.006.885.201 1.3.609 1.3.445 0 .6.468.6 1.813 0 1.23.19 1.885.591 2.039.354.136.697 1.017.852 2.188.168 1.267.454 1.96.809 1.96.392 0 .548.575.548 2.014 0 1.108.26 2.413.578 2.9.318.487.622 1.743.675 2.791.06 1.176.374 2.203.822 2.683.556.597.725 1.428.725 3.567 0 1.945.181 2.969.6 3.388.458.458.6 1.604.6 4.841 0 3.401.119 4.287.6 4.471.519.199.6 2.278.6 15.339 0 12.941-.086 15.179-.6 15.606-.463.384-.6 1.45-.6 4.678 0 3.181-.143 4.322-.6 4.779-.411.411-.6 1.423-.6 3.208 0 2.003-.186 2.845-.8 3.626-.536.682-.801 1.625-.802 2.863-.002 1.015-.272 2.362-.6 2.992-.329.63-.598 1.845-.598 2.7 0 .855-.173 1.554-.385 1.554-.211 0-.572.765-.801 1.7-.229.935-.686 2.21-1.015 2.832-.33.623-.599 1.636-.599 2.251 0 .616-.27 1.343-.6 1.617-.33.274-.6 1.023-.6 1.666 0 .642-.36 1.554-.8 2.026-.44.472-.8 1.253-.8 1.734 0 .482-.27 1.1-.6 1.374-.33.274-.6.904-.6 1.4 0 .496-.27 1.126-.6 1.4-.33.274-.6.843-.6 1.266 0 .422-.36 1.154-.8 1.626-.44.472-.8 1.098-.8 1.391 0 .293-.54 1.544-1.2 2.781-.66 1.237-1.2 2.45-1.2 2.696s-.36.672-.8.947c-.44.275-.8.864-.8 1.309 0 .445-.27.913-.6 1.039-.33.127-.6.549-.6.939 0 .389-.27.932-.6 1.206-.33.274-.6.718-.6.987s-.36.815-.8 1.213c-.44.398-.8 1.056-.8 1.462 0 .406-.177.738-.392.738-.216 0-.801.896-1.3 1.992-.5 1.095-1.137 1.995-1.418 2-.28.004-.681.458-.89 1.008-.209.55-.565 1-.79 1-.226 0-.41.36-.41.8 0 .44-.184.8-.409.8-.224 0-.613.45-.864 1-.25.55-.676 1-.945 1-.269 0-.594.315-.724.7-.356 1.062-1.123 2.135-2.558 3.578-.715.719-1.3 1.472-1.3 1.672 0 .2-.27.468-.6.595-.33.126-.601.461-.603.742-.001.282-.631.941-1.4 1.465-.768.523-1.397 1.074-1.397 1.224 0 .683-10.924 11.224-11.633 11.224-.202 0-.367.36-.367.8 0 .527-.267.8-.78.8-.429 0-.924.242-1.1.537-.176.295-.86.876-1.52 1.29-.66.414-1.491 1.072-1.847 1.463-.356.39-.851.71-1.1.71-.249 0-.453.27-.453.6 0 .33-.27.6-.6.6-.33 0-.6.168-.6.373s-.405.501-.9.657c-.495.157-1.191.619-1.547 1.027-.356.409-.851.743-1.1.743-.249 0-.453.168-.453.373s-.397.499-.881.653c-.485.154-1.128.526-1.429.827-.301.301-.785.547-1.076.547-.291 0-.635.279-.766.619-.131.34-.78.808-1.443 1.039-.663.231-1.205.583-1.205.781 0 .199-.248.361-.551.361-.303 0-.775.27-1.049.6-.274.33-.808.6-1.187.6s-1.015.36-1.413.8c-.398.44-.944.8-1.213.8-.269 0-.713.27-.987.6-.274.33-.843.6-1.266.6-.422 0-1.14.347-1.595.771-.455.423-1.066.678-1.359.566-.292-.112-.766.171-1.052.63-.286.458-.85.833-1.253.833-.403 0-1.002.27-1.332.6-.33.33-1.095.6-1.699.6-1.099 0-2.428 1.139-2.967 2.543-.149.389-.465.588-.701.442-.237-.146-.334-.518-.216-.825.119-.311-.027-.56-.33-.56-.299 0-.648.27-.775.6-.126.33-.698.6-1.271.6s-1.311.27-1.641.6c-.33.33-1.103.6-1.718.6-.614 0-1.575.36-2.134.8-.56.44-1.193.8-1.407.8-.215 0-.49.378-.61.84-.13.497-.406.726-.674.56-.25-.155-.358-.533-.24-.84.287-.748-.731-.717-1.36.04-.274.33-.746.6-1.049.6-.303 0-.551.36-.551.8 0 .47-.267.8-.647.8-.449 0-.583-.244-.437-.8.247-.946-.329-1.044-1.173-.2-.33.33-1.262.603-2.072.606-1.008.004-1.295.118-.913.36.744.471.261 1.634-.679 1.634-1.131 0-1.353-.455-.618-1.268.538-.594.555-.732.089-.732-.315 0-.833.36-1.15.8-.317.44-.944.8-1.393.8-.464 0-.988.389-1.212.9-.458 1.045-1.965 1.389-2.853.652-.548-.455-.538-.566.098-1.031.392-.287.511-.521.265-.521s-.718.27-1.048.6c-.33.33-1.288.614-2.128.632-.841.017-1.304.122-1.029.233 1.018.411.452 1.25-1.111 1.647-1.884.478-3.231-.297-2.354-1.354.621-.749.064-.714-.692.042-.395.395-1.443.611-3.072.632-1.359.017-2.246.122-1.971.233.597.241.661 1.188.104 1.533-2.406 1.486-8.888.354-7.511-1.313.451-.546.408-.552-.393-.053-.495.308-.9.697-.9.864 0 .167-3.253.304-7.229.304-5.539 0-7.354.126-7.769.541-.654.654-8.264.469-9.702-.235-1.334-.654-1.12-1.494.4-1.575.715-.038.13-.173-1.3-.3-2.277-.202-2.637-.139-2.901.506-.659 1.615-12.299-.457-12.299-2.189 0-.752-.044-.761-.669-.136-1.364 1.364-5.732-.165-4.548-1.592.438-.527.387-.62-.334-.62-.467 0-.804.225-.749.5.26 1.298-6.429-.173-11.544-2.54-.904-.418-1.928-.76-2.276-.76-.348 0-.744-.18-.88-.4-.136-.22-.54-.4-.897-.4-.751 0-2.201-.65-9.904-4.443-3.081-1.516-5.811-2.757-6.067-2.757-.256 0-.525-.138-.599-.308-.073-.169-1.483-1.091-3.133-2.049-24.748-14.372-45.685-36.805-58.276-62.443-3.069-6.25-4.924-10.356-4.926-10.909-.002-.27-.266-.995-.587-1.611a16.573 16.573 0 01-.97-2.4c-.212-.704-.817-2.54-1.344-4.08-3.334-9.734-5.956-21.723-6.737-30.8-1.021-11.865-.805-27.564.486-35.4.2-1.21.615-3.82.924-5.8.574-3.683.707-4.28 2.495-11.2 1.564-6.052 3.524-12.246 5.189-16.4.353-.88.784-1.96.958-2.4 6.83-17.287 18.542-34.757 32.861-49.017 7.441-7.409 10.079-9.612 21.927-18.302 1.095-.804 6.361-4.014 9.185-5.599 3.967-2.228 5.142-2.853 8.015-4.268 3.874-1.908 5.696-2.736 8.4-3.817a226.254 226.254 0 005.751-2.371c1.073-.454 2.294-.826 2.714-.826.42 0 1.204-.289 1.744-.643.621-.407 1.56-.587 2.563-.491 1.256.12 1.621.005 1.768-.558.102-.389.489-.708.86-.708.372 0 1.921-.378 3.443-.841 3.204-.973 4.137-.813 3.855.66-.177.928-.137.96.486.395.374-.338.859-.614 1.079-.614.22 0 .386-.405.369-.9-.042-1.172 4.128-2.363 5.19-1.482.492.409.512.577.097.841-.311.197.202.309 1.281.28.99-.026 1.395-.126.9-.221-1.071-.207-1.185-1.144-.2-1.649 1.434-.736 5.202-.91 5.843-.269.801.801 2.958.845 2.296.047-.723-.871.448-1.19 5.361-1.458 2.42-.132 4.901-.274 5.513-.315.673-.045 1.203.163 1.342.526m28.861 1.431c1.806.629 1.252 1.569-.925 1.569-1.7 0-2.273-.456-1.889-1.5.225-.614 1.184-.637 2.814-.069m18.013 4.902c.144.74-.605.867-1.529.261-.533-.35-.533-.438 0-.787.779-.511 1.367-.309 1.529.526m11.271 4.097c0 .32-.248.45-.6.315-.33-.127-.6-.476-.6-.775 0-.32.248-.45.6-.315.33.127.6.476.6.775m-112.887 71.83c-.084.254-1.224.549-2.533.657-1.64.135-2.581.427-3.027.94-.404.464-1.182.743-2.071.743-.784 0-1.695.27-2.025.6-.33.33-.951.6-1.379.6-.429 0-1.004.27-1.278.6-.274.33-.886.6-1.361.6-.474 0-1.122.36-1.439.8-.317.44-.968.8-1.446.8-.477 0-.972.27-1.099.6-.126.33-.512.6-.856.6s-1.241.615-1.992 1.367c-.752.751-1.736 1.484-2.187 1.627-.451.143-.82.428-.82.633 0 .205-.207.373-.46.373-.252 0-1.071.63-1.819 1.4-.748.77-1.46 1.4-1.584 1.4-.123 0-.652.405-1.174.9-1.494 1.417-1.234 2.604 1.037 4.737 1.1 1.033 2 1.981 2 2.107 0 .126.63.859 1.4 1.629.77.77 1.4 1.553 1.4 1.74 0 .187.9 1.288 2 2.448 1.1 1.159 2 2.182 2 2.273 0 .091.315.499.7.906a33.473 33.473 0 011.396 1.6c1.317 1.627 7.904-.658 7.904-2.741 0-.168.315-.411.7-.541.774-.26 2.188-1.116 2.5-1.513.11-.14.875-.536 1.7-.88.825-.343 1.5-.813 1.5-1.045 0-.231.428-.42.951-.42.523 0 1.175-.27 1.449-.6.274-.33.911-.6 1.416-.6.504 0 .977-.178 1.051-.396.442-1.312 14.075-1.524 15.493-.24.387.35.985.636 1.329.636s.729.27.856.6c.126.33.486.6.799.6.313 0 .682.45.82 1 .138.55.428 1 .644 1 .215 0 .392.608.392 1.351 0 .748.284 1.587.637 1.88.809.671.688 7.594-.137 7.869-.289.096-.5.841-.5 1.762 0 .885-.267 1.862-.6 2.195-.33.33-.6 1.037-.6 1.572 0 .563-.234.971-.557.971-.612 0-1.043.841-1.043 2.033 0 .422-.249.767-.553.767-.305 0-.659.315-.789.7-.323.962-1.121 2.161-1.958 2.941-.385.359-.7.808-.7.997 0 .19-.675 1.007-1.5 1.816-2.669 2.618-3.7 3.748-3.7 4.056 0 .166-1.53 1.852-3.4 3.748-1.87 1.895-3.4 3.692-3.4 3.994 0 .301-.27.548-.6.548-.33 0-.6.27-.6.6 0 .33-.2.6-.444.6-.614 0-2.341 1.69-2.349 2.3-.004.275-.277.5-.607.5-.33 0-.6.27-.6.6 0 .33-.2.6-.444.6-.614 0-2.341 1.69-2.349 2.3-.004.275-.208.5-.454.5-.582 0-3.553 2.971-3.553 3.553 0 .246-.225.448-.5.449-.275.001-1.13.749-1.9 1.662-1.913 2.268-16.803 17.136-17.162 17.136-1.992 0-3.27 18.311-1.408 20.173.568.567 4.777.62 41.9.529l41.27-.102.107-11.2c.097-10.175.044-11.246-.577-11.7-.527-.386-6.021-.504-24.106-.518l-23.424-.017 2.171-1.883c1.194-1.035 4.221-3.907 6.726-6.382 2.505-2.475 4.624-4.5 4.708-4.5.381 0 2.195-1.939 2.195-2.346 0-.25.166-.454.369-.454.858 0 11.631-10.575 11.631-11.416 0-.321.276-.584.613-.584.336 0 .716-.27.842-.6.127-.33.481-.6.788-.6.306 0 .557-.28.557-.623 0-.342.524-1.107 1.165-1.7 1.41-1.303 5.635-6.743 5.635-7.254 0-.201.225-.611.5-.911.724-.79 1.433-1.932 2.102-3.385.322-.7.769-1.385.992-1.523.223-.138.406-.669.406-1.179s.27-1.151.6-1.425c.33-.274.6-1.131.6-1.905 0-.859.263-1.599.676-1.901.48-.351.763-1.398.973-3.597.163-1.706.489-3.295.724-3.53.55-.55.579-9.749.031-9.934-.218-.073-.514-1.303-.658-2.733-.152-1.507-.574-3.046-1.004-3.662-.408-.584-.742-1.534-.742-2.112 0-.578-.27-1.155-.6-1.281-.33-.127-.6-.579-.6-1.005 0-.786-.29-1.243-1.9-2.996-.495-.539-.9-1.078-.9-1.198 0-.447-5.637-5.746-6.112-5.746-.273 0-.72-.36-.995-.8-.275-.44-.746-.8-1.047-.8-.302 0-.772-.27-1.046-.6-.274-.33-.814-.6-1.2-.6s-.926-.27-1.2-.6c-.274-.33-1.063-.6-1.753-.6-.821 0-1.427-.276-1.754-.8-.377-.604-.933-.8-2.268-.8-1.038 0-2.016-.248-2.368-.6-.78-.78-24.886-.913-25.144-.14m109.007 1.434c-.143.388-.508.856-.812 1.038-.304.183-.722.723-.929 1.2-.573 1.319-1.323 2.432-1.879 2.788-.275.176-.5.652-.5 1.057 0 .406-.273.842-.606.97-.333.128-.779.687-.99 1.243-.211.555-.569 1.01-.794 1.01-.226 0-.41.36-.41.8 0 .44-.168.8-.373.8s-.501.404-.658.898c-.157.495-.537 1.083-.844 1.307-.593.434-1.546 1.934-1.965 3.095-.139.385-.469.7-.732.7s-.726.63-1.028 1.4c-.302.77-.696 1.4-.875 1.4-.179 0-.325.276-.325.613 0 .336-.27.716-.6.842-.33.127-.6.447-.6.712 0 .265-.36.869-.8 1.341-.44.472-.8 1.046-.8 1.275 0 .229-.25.417-.557.417-.306 0-.669.45-.807 1s-.428 1-.644 1c-.215 0-.392.45-.392 1 0 .629-.226 1-.61 1-.335 0-.774.433-.975.961-.201.529-.557 1.079-.79 1.224-.234.144-.425.612-.425 1.039 0 .427-.27.776-.6.776-.33 0-.6.248-.6.551 0 .303-.289.791-.642 1.084-.353.292-.802.9-.999 1.349-.559 1.277-1.313 2.386-1.859 2.736-.275.176-.5.628-.5 1.004s-.36.908-.8 1.183c-.44.275-.8.749-.8 1.054 0 .304-.27.657-.6.784-.33.126-.6.596-.6 1.042 0 .447-.184.813-.41.813-.225 0-.583.455-.794 1.01-.211.556-.657 1.115-.99 1.243-.333.128-.606.551-.606.941 0 .389-.27.932-.6 1.206-.33.274-.6.727-.6 1.006 0 .28-.273.613-.606.741-.333.128-.783.642-.999 1.143-.508 1.177-1.18 2.181-2.28 3.408-.487.543-1.116 1.508-1.398 2.145-.282.636-.645 1.157-.807 1.157-.162 0-.703.896-1.202 1.992-.5 1.095-1.121 1.995-1.382 2-.261.004-.702.638-.98 1.408-.279.77-.651 1.4-.826 1.4-.176 0-.32.27-.32.6 0 .33-.27.6-.6.6-.33 0-.6.242-.6.538 0 .296-.36.864-.8 1.262-.44.398-.8 1.056-.8 1.462 0 .406-.27.738-.6.738-.33 0-.6.211-.6.469 0 .257-.315.816-.7 1.241-.738.815-1.101 19.114-.413 20.79.27.656 1.798.7 24.1.7H247.2v11.357c0 9.987.076 11.387.633 11.6.826.317 25.508.317 26.334 0 .557-.213.633-1.613.633-11.6V293.2h6.32c8.035 0 7.28 1.125 7.28-10.847 0-12.515.86-11.153-7.041-11.153h-6.555l-.102-36.1-.102-36.1-12.71-.106c-11.835-.098-12.729-.057-12.97.6m-.285 35.604c-.43.43-.658-.172-.356-.941.283-.721.304-.722.445-.026.08.403.041.838-.089.967m-1.346 18.802l-.196 17.3h-22.618l.463-.997c.254-.548.644-.998.867-1 .4-.003.884-.755 1.867-2.903.277-.605.714-1.1.972-1.1s.582-.45.72-1 .428-1 .644-1c.215 0 .392-.45.392-1 0-.602.228-1 .574-1 .316 0 .802-.63 1.08-1.4.279-.77.651-1.4.826-1.4.176 0 .32-.251.32-.557 0-.307.27-.661.6-.788.33-.126.6-.506.6-.842 0-.337.18-.613.4-.613.22 0 .4-.27.4-.6 0-.33.18-.6.4-.6.22 0 .4-.27.4-.6 0-.33.167-.6.372-.6s.79-.855 1.3-1.9 1.198-2.107 1.528-2.36c.33-.253.958-1.153 1.396-2 .438-.847.999-1.671 1.248-1.831.248-.159.677-.834.952-1.5.276-.665.659-1.209.853-1.209.193 0 .351-.276.351-.613 0-.336.27-.716.6-.842.33-.127.6-.465.6-.752 0-.485 2.05-3.906 2.212-3.69.04.053-.015 7.882-.123 17.397m2.511 147.7c-.194.313-.424.336-.69.07-.22-.22-.27-.612-.11-.87.194-.313.424-.336.69-.07.22.22.27.612.11.87m-62.295 6.683c.497.096 1.217.092 1.6-.008.382-.1-.025-.179-.905-.174-.88.004-1.193.086-.695.182m22.802.007c.719.089 1.799.087 2.4-.004s.013-.164-1.307-.162c-1.32.002-1.812.077-1.093.166" fill="#d42c55"/><path id="path1" d="M152.941.396c-.473.191-.978.541-1.124.776-.145.235-.624.428-1.064.428-.44 0-.689.18-.553.4.136.22-.044.4-.4.4-.356 0-.536.18-.4.4.136.22-.1.4-.524.4-1.344 0-7.205 5.464-8.26 7.7-.389.825-.957 1.5-1.262 1.5-.32 0-.554.41-.554.971 0 .535-.315 1.288-.7 1.673-.747.749-.783.867-.854 2.827-.025.7-.316 1.542-.646 1.872-.795.795-.883 11.414-.1 12.197.555.555.579.653.65 2.697.037 1.077.251 1.49.85 1.647.511.134.8.546.8 1.139 0 .511.183 1.043.407 1.181.223.138.315.398.204.578-.111.18.064.548.389.818.325.27.475.678.334.907-.142.229-.07.301.159.159.531-.328 1.46.763 1.119 1.315-.141.228.203.625.765.882.563.256 1.023.607 1.023.781 0 .603 3.405 3.878 4.2 4.04.44.09.755.378.7.64-.056.266.334.476.886.476.589 0 1.165.335 1.431.831.258.484.686.738 1.023.609.318-.122.934.134 1.369.569.524.524 1.33.791 2.391.791.88 0 1.6.191 1.6.424 0 .233.168.32.372.193.205-.126.486-.047.624.176.156.253 3.192.407 8.028.407h7.776v9.921l-2.5.278c-1.375.152-2.899.53-3.386.839-.509.323-1.913.562-3.3.562-1.343 0-2.414.178-2.414.4 0 .22-.191.4-.424.4-.233 0-.312-.18-.176-.4.375-.607-.179-.478-.857.2-.334.333-1.432.633-2.472.674-1.029.04-2.266.094-2.749.118-.484.025-1.218.352-1.632.727-.479.433-1.421.681-2.589.681-2.098 0-3.197.322-2.875.842.122.197-.584.358-1.569.358-.995 0-1.859.205-1.944.46-.084.254-1.171.545-2.415.648-1.527.127-2.482.432-2.941.94-.451.498-1.223.752-2.287.752-.884 0-1.899.264-2.256.587-.357.323-1.237.632-1.955.687-.718.055-1.497.331-1.731.613-.234.282-.766.513-1.182.513-.72 0-2.317.723-2.746 1.242-.11.134-.875.367-1.7.518-.825.152-1.5.448-1.5.658 0 .21-.538.382-1.197.382-.727 0-1.376.288-1.655.734-.293.469-.782.672-1.354.563-.581-.111-1.093.109-1.454.625-.307.438-1.094.86-1.749.937-.655.078-1.429.366-1.72.641-.29.275-.926.5-1.411.5-.486 0-1.136.35-1.445.779-.308.428-.704.689-.88.581-.485-.3-1.99.627-1.723 1.06.13.209-.256.38-.857.38s-1.405.284-1.788.63c-.383.347-.938.673-1.232.725-.294.051-1.165.487-1.935.968s-1.546.875-1.724.876c-.178 0-.212.181-.076.401.144.233-.263.4-.976.4-.821 0-1.224.197-1.224.6 0 .383-.385.6-1.067.6-.586 0-.949.117-.806.26.346.346-.952 1.311-1.784 1.327-.362.007-.761.283-.888.613-.126.33-.589.6-1.028.6-.44 0-.994.365-1.233.811-.239.446-.599.71-.799.586-.201-.125-.732.14-1.18.588-.448.448-1.066.815-1.372.815-.307 0-.661.27-.788.6-.126.33-.552.6-.946.6-.394 0-.946.367-1.226.816-.28.448-.65.728-.823.621-.173-.107-.567.156-.875.584-.309.429-.876.779-1.259.779-.384 0-.89.358-1.124.796-.234.438-.646.753-.914.7-.268-.053-.443.129-.388.404.09.452-.397.674-1.2.547-.165-.026-.3.221-.3.548 0 .327-.603.846-1.339 1.154-.736.307-2.221 1.387-3.3 2.398-1.079 1.012-2.197 1.842-2.485 1.846-.288.004-.412.187-.276.407.136.22-.123.4-.576.4-.453 0-.824.23-.824.511 0 .621-1.439 1.916-1.766 1.589-.129-.128-.234-.023-.234.233 0 .257-.315.47-.7.473-.555.005-.586.079-.147.356.427.271.335.417-.4.642-.524.161-1.809 1.17-2.854 2.244-1.046 1.074-2.171 1.952-2.5 1.952-.332 0-.599.356-.599.8 0 .541-.267.8-.824.8-.453 0-.741.135-.642.3.259.427-.786 1.308-1.156.976-.168-.152-.182-.059-.029.206.165.288-.173.771-.836 1.195-1.317.843-2.283 1.723-1.893 1.723.153 0 .056.268-.216.596-.272.327-.682.479-.911.338-.229-.142-.323-.095-.208.104.268.462-1.512 2.202-1.878 1.836-.15-.151-.214-.061-.14.2.073.261-.745 1.386-1.817 2.5-1.073 1.114-1.825 2.026-1.672 2.026.154 0-.036.315-.421.7-.385.385-.893.7-1.128.7-.236 0-.437.18-.446.4-.009.22-.954 1.383-2.1 2.585-1.146 1.201-2.185 2.506-2.31 2.9-.125.393-.395.715-.6.715-.205 0-.373.371-.373.824 0 .453-.181.711-.403.574-.221-.137-.523.078-.67.477-.147.399-.675 1.111-1.173 1.583-.497.472-.796.967-.663 1.1.133.133-.024.242-.35.242-.325 0-.839.63-1.141 1.4-.302.77-.706 1.4-.898 1.4-.192 0-.22.225-.061.5.158.275.14.367-.04.203-.462-.418-1.401.456-1.401 1.303 0 .39-.27.812-.6.939-.33.126-.6.626-.6 1.109 0 .484-.118.761-.263.616-.362-.362-1.381.535-1.109.975.121.195.029.355-.204.355-.233 0-.424.317-.424.705 0 .388-.45 1.043-1 1.456-.55.413-1 .996-1 1.295 0 .299-.168.544-.373.544-.38 0-1.05 1.554-.906 2.1.043.165-.105.3-.331.3-.409 0-1.377 1.93-1.255 2.5.036.165-.15.255-.413.2-.263-.055-.601.44-.752 1.1-.152.66-.297 1.025-.323.811-.026-.214-.335.023-.688.526-.352.503-.533 1.022-.402 1.153s-.109.481-.533.778c-.425.298-.828 1.034-.898 1.636-.071.616-.345 1.052-.626.996-.303-.061-.5.334-.5 1.004 0 .673-.314 1.3-.806 1.607-.551.344-.752.807-.634 1.459.119.656-.037 1.009-.501 1.13-.393.103-.712.635-.765 1.274-.11 1.322-.43 1.912-.886 1.631-.185-.115-.461.525-.612 1.421-.152.896-.528 1.726-.836 1.845-.308.118-.56.533-.56.923 0 .389-.27.932-.6 1.206-.33.274-.6 1.106-.6 1.849 0 .867-.179 1.315-.5 1.251-.275-.055-.475.215-.444.6.03.385-.112.7-.316.7-.203 0-.318.491-.255 1.091.079.752-.072 1.095-.485 1.1-.33.005-.636.369-.679.809-.214 2.173-.319 2.539-.704 2.472-.229-.039-.507.738-.617 1.728-.11.99-.36 1.74-.555 1.666-.585-.221-.964.752-.834 2.146.077.825-.133 1.583-.567 2.049-.823.883-.844.952-.844 2.739 0 .907-.176 1.365-.5 1.3-.327-.065-.544.524-.628 1.7-.071 1.003-.374 1.937-.683 2.11-.315.177-.447.595-.304.966.138.36.085.553-.117.428-.202-.124-.401.584-.442 1.575-.041.99-.356 2.112-.7 2.492-.375.415-.626 1.422-.626 2.512 0 1.129-.228 2.008-.6 2.317-.412.342-.6 1.255-.6 2.917 0 1.677-.201 2.642-.653 3.141-.4.442-.704 1.616-.785 3.032-.184 3.198-.533 4.933-1.178 5.855-.831 1.186-.845 63.137-.015 63.967.616.615 1.145 3.463 1.145 6.156 0 1.16.24 1.928.743 2.384.577.521.743 1.246.743 3.234 0 1.854.129 2.481.468 2.272.307-.19.387-.077.231.328-.13.339-.085.773.1.965.186.192.386 1.159.447 2.149.06.99.331 2.16.602 2.6.272.44.57 1.677.662 2.75.109 1.265.4 2.08.829 2.32.441.246.661.896.661 1.95 0 .869.191 1.58.424 1.58.233 0 .3.2.148.445-.151.244-.089.559.137.7.226.14.471.885.545 1.655.074.77.38 1.591.681 1.824.459.357.656 1.179.839 3.5.015.178.207.211.429.074.475-.294.685.237.943 2.391.104.875.385 1.655.622 1.734.238.079.432.579.432 1.11 0 .532.16.967.355.967.196 0 .477.646.625 1.436.359 1.912 1.057 3.389 1.478 3.128.188-.116.342.42.342 1.193 0 .829.245 1.54.597 1.738.329.183.637.809.685 1.391.048.581.215.978.37.882.155-.096.581.727.947 1.829.366 1.102.831 2.003 1.033 2.003.202 0 .368.36.368.8 0 .44.173.8.384.8.211 0 .6.72.863 1.6.264.88.721 1.6 1.016 1.6.314 0 .537.439.537 1.056 0 .581.258 1.256.572 1.5.315.244.63.804.7 1.244.071.44.455 1.044.855 1.342.4.297.628.799.507 1.115a.611.611 0 00.345.79c.311.12.748.743.972 1.385.224.642.597 1.168.828 1.168.232 0 .421.439.421.976 0 .537.208 1.105.462 1.262.305.189.352.108.138-.238-.214-.346-.167-.427.138-.238.254.157.462.64.462 1.074 0 .434.269.892.598 1.018.328.127.505.379.393.561-.112.181.157.584.6.894.442.309.685.682.54.827-.145.145-.054.264.202.264.257 0 .467.45.467 1s.135.979.3.953c.996-.158 1.375.116 1.183.852-.14.533.048.944.553 1.214.42.225.764.59.764.811 0 .511 1.563 2.75 2.561 3.669.419.386.637.701.485.701-.153 0 .084.387.525.861.441.473.69 1.041.553 1.261-.136.221-.073.294.141.162.213-.132.701.29 1.084.938.383.648.845 1.178 1.027 1.178.182 0 .43.378.55.84.125.476.41.723.657.571.24-.149.393-.122.339.059-.127.431 2.088 3.73 2.504 3.73.176 0 .439.374.584.83.144.457.358.735.474.619.256-.255.706.202 2.51 2.551.761.99 1.726 2.111 2.145 2.491.419.38 1.144 1.209 1.611 1.842.468.633 1.03 1.195 1.25 1.249.22.054.359.249.308.434-.05.184.267.449.706.588.439.14.726.376.638.525-.236.401 2.443 2.838 2.784 2.532.161-.143.18-.064.042.178-.137.241.312.961.998 1.6.686.638 1.102.908.924.599-.217-.377-.172-.468.138-.276.254.157.462.458.462.67 0 .212.945 1.282 2.1 2.379 3.124 2.967 3.825 3.531 4.074 3.282.124-.125.226-.044.226.179 0 .704 1.539 2.213 1.979 1.941.246-.152.434.124.453.663.017.508.118.711.224.45.116-.283.916.24 1.992 1.3.989.976 1.923 1.779 2.076 1.785.152.006 1.176.814 2.276 1.796 1.1.982 2.107 1.787 2.239 1.789.131.002.612.319 1.067.704a38.3 38.3 0 001.944 1.5c.613.44 1.438 1.115 1.833 1.5.394.385.987.7 1.317.7.33 0 .6.191.6.424 0 .233.18.312.4.176.22-.136.4-.057.4.176 0 .233.227.424.504.424s.733.367 1.013.816c.28.448.677.711.883.584.206-.127.603.136.883.584.28.449.832.816 1.226.816s.82.27.946.6c.127.33.672.6 1.211.6.55 0 .873.175.735.398-.135.219.259.622.876.896.618.273 1.361.724 1.652 1.001.29.278.886.505 1.323.505.437 0 .687.175.555.388-.132.214.261.514.873.668 1.286.323 2.209 1.115 1.801 1.546-.155.164.103.18.572.036.561-.172.928-.066 1.073.312.121.316.774.696 1.45.845.677.148 1.14.417 1.03.596-.232.375.76.847 2.163 1.028.532.069 1.118.394 1.302.722.184.328.873.715 1.531.86.659.144 1.198.428 1.198.631 0 .202.36.368.8.368.44 0 1.156.356 1.591.791.435.435 1.065.686 1.4.557.349-.134.609-.016.609.276 0 .28.117.392.26.249.144-.143.459.006.7.332.242.326.935.633 1.54.681.605.049 1.1.319 1.1.601 0 .303.491.513 1.2.513.66 0 1.2.191 1.2.424 0 .233.161.324.358.202.197-.122.469.066.603.418.137.357.504.54.83.415.321-.123.692-.049.824.165a.45.45 0 00.615.157c.207-.127.484.05.616.394.132.344.625.627 1.097.63 1.374.009 2.667.456 2.429.84-.194.313 2.167.583 3.228.369.22-.044.267.053.103.216-.498.498.476 1.3 1.314 1.081.433-.113 1.091.041 1.462.342.532.431.607.435.356.017-.262-.435-.173-.438.497-.019.449.28.727.653.619.829-.166.268 2.132.532 3.16.364.171-.028.416.22.543.552.152.397.771.604 1.806.604.985 0 1.874.28 2.378.75.526.49 1.438.762 2.633.786 1.005.02 2.249.313 2.764.65.515.338 1.676.614 2.579.614.927 0 1.905.261 2.243.6.412.412 1.425.6 3.227.6 1.938 0 2.75.167 3.092.635.303.414 1.292.695 2.844.809 3.609.264 4.657.502 5.478 1.245.538.487.832.548 1.037.216.187-.303.49-.334.876-.09.35.222 12.51.373 29.989.373s29.639-.151 29.989-.373c.389-.246.696-.21.9.106.24.369.382.37.619.004.52-.801 2.432-1.325 4.838-1.325 1.281 0 2.532-.221 2.833-.5.438-.406.478-.388.215.1-.178.33.123.195.667-.3.796-.723 1.462-.9 3.388-.9 1.489 0 2.692-.223 3.175-.587.427-.323 1.43-.593 2.23-.6.8-.007 1.97-.282 2.6-.611.63-.328 1.866-.604 2.746-.612 1.578-.015 3.234-.823 2.727-1.33-.238-.238 2.836-.39 3.256-.16.1.055.474-.26.829-.7.356-.44.509-.53.341-.2-.251.492-.198.512.297.112.332-.268 1.164-.531 1.849-.583.685-.052 1.157-.238 1.05-.412-.108-.174-.006-.34.227-.367.579-.068.913-.17 1.683-.512.362-.16.992-.235 1.4-.165.448.077.698-.082.631-.403-.06-.291.062-.423.272-.293.211.13.496.053.634-.17.138-.224.849-.407 1.579-.407s1.551-.27 1.825-.6c.274-.33.951-.6 1.505-.6.554 0 1.21-.278 1.458-.617.249-.34.898-.676 1.444-.748 1.457-.19 2.42-.668 2.167-1.077-.122-.197.342-.358 1.031-.358.689 0 1.522-.27 1.852-.6.33-.33.937-.6 1.349-.6.412 0 1.017-.384 1.346-.853.338-.483.849-.756 1.179-.629.32.123.953-.124 1.408-.547.455-.424 1.266-.771 1.801-.771.536 0 1.078-.27 1.205-.6.126-.33.478-.6.781-.6.303 0 .962-.356 1.464-.792.502-.435 1.057-.703 1.232-.595.468.29 2.389-.671 2.142-1.071-.116-.188.159-.342.612-.342.453 0 .824-.191.824-.424 0-.233.181-.311.403-.174.221.137.513-.038.647-.389.157-.408.514-.551.997-.398.507.161.753.044.753-.357 0-.328.632-.804 1.404-1.059.772-.255 1.301-.629 1.176-.831-.125-.203.131-.368.568-.368.437 0 1.041-.246 1.342-.547.301-.301.927-.668 1.392-.815.464-.148.945-.532 1.068-.853.124-.322.596-.585 1.05-.585.454 0 .929-.27 1.055-.6.127-.33.571-.6.988-.6.416 0 .757-.184.757-.41 0-.225.455-.583 1.01-.794.556-.211 1.115-.657 1.243-.99.128-.333.579-.606 1.002-.606.424 0 .874-.27 1-.6.127-.33.571-.6.988-.6.416 0 .757-.27.757-.6 0-.33.317-.6.705-.6.388 0 1.041-.447 1.45-.992.41-.546.903-.896 1.095-.777.193.119.35.028.35-.202 0-.231.758-.897 1.683-1.482.926-.584 2.231-1.576 2.9-2.203.67-.627 1.472-1.141 1.784-1.142.311-.001.455-.113.319-.25-.378-.378 1.514-1.903 2.977-2.401.365-.124.758-.586.873-1.028.116-.442.402-.685.637-.54.25.155.427-.078.427-.559 0-.497.26-.824.656-.824.361 0 1.126-.44 1.7-.977.574-.538 1.809-1.68 2.744-2.538.935-.858 1.7-1.779 1.7-2.046 0-.268.135-.409.3-.315.165.094.711-.256 1.214-.777s.773-.954.6-.963c-.173-.009.181-.285.786-.613s1.1-.839 1.1-1.135c0-.296.315-.785.7-1.087.645-.506.656-.486.134.251-.311.44.345-.1 1.459-1.2 1.113-1.1 1.96-2.068 1.882-2.15-.078-.083.916-1.193 2.209-2.466 1.293-1.273 2.262-2.405 2.152-2.514-.109-.11.355-.609 1.033-1.11.677-.501 1.231-1.157 1.231-1.459 0-.301.18-.437.4-.301.22.136.4.055.4-.179 0-.234.444-.812.986-1.284.543-.472.892-1.01.777-1.197-.116-.187-.02-.34.213-.34.233 0 .424-.3.424-.667 0-.366.114-.552.253-.413.295.294 1.747-1.437 1.747-2.083 0-.24.17-.437.377-.437.208 0 .691-.53 1.074-1.178.383-.648.871-1.07 1.084-.938.214.132.273.052.131-.177-.141-.229.011-.639.338-.911.328-.272.596-.742.596-1.045 0-.303.191-.551.424-.551.233 0 .312-.18.176-.4-.136-.22.022-.4.351-.4.328 0 .822-.62 1.096-1.379.274-.758.646-1.287.826-1.176.18.111.327-.068.327-.399 0-.33.333-.836.74-1.123.407-.288.693-.839.635-1.225-.057-.386.059-.6.26-.476s.365-.055.365-.398.18-.624.4-.624c.22 0 .4-.171.4-.379 0-.209.447-.862.993-1.451.545-.589.907-1.208.804-1.375-.104-.167.08-.527.407-.799.328-.272.596-.731.596-1.021 0-.29.208-.656.462-.813.305-.189.352-.108.138.238-.214.346-.167.427.138.238.254-.157.462-.725.462-1.262s.158-.976.351-.976c.194 0 .57-.527.837-1.171s.75-1.273 1.074-1.397c.324-.125.481-.401.349-.615-.132-.213.081-.717.474-1.12.393-.402.772-1.084.843-1.514.07-.431.385-.983.7-1.227.314-.244.572-.919.572-1.5 0-.66.219-1.056.585-1.056.344 0 .763-.663 1.018-1.612.239-.887.61-1.503.826-1.37.215.133.365.093.334-.088-.164-.941.082-2.149.398-1.954.438.271 1.327-2.11.991-2.654-.131-.212.141-.652.605-.977.466-.326.843-1.027.843-1.568 0-.568.209-.935.5-.877.323.065.544-.504.623-1.609.068-.94.284-1.61.48-1.489.387.239 1.391-1.341 1.062-1.67-.11-.11-.011-.742.22-1.405.309-.886.51-1.062.761-.666.224.354.344.023.348-.961.003-.825.167-1.5.363-1.5.197 0 .465-.279.596-.621.159-.416.075-.529-.258-.341-.386.218-.385.161.005-.259.275-.297.5-1.054.5-1.683s.168-1.04.372-.913c.525.324.868-.369 1.027-2.077.075-.808.421-1.678.769-1.932.376-.275.632-1.053.632-1.918 0-.801.174-1.456.387-1.456.214 0 .291-.252.173-.56-.118-.307-.022-.678.213-.823.235-.145.427-.889.427-1.653 0-.889.225-1.475.623-1.628.343-.132.528-.486.413-.788-.116-.301-.073-.548.095-.548.168 0 .351-.675.406-1.5.056-.824.363-1.898.682-2.385.32-.488.581-1.693.581-2.677 0-.985.192-1.91.427-2.055.235-.145.327-.525.205-.844-.125-.324-.048-.473.173-.336.244.151.395-.731.395-2.317 0-2.054.159-2.706.8-3.286.879-.795 1.096-1.625.3-1.147-.376.226-.394.158-.071-.276.236-.317.45-1.027.475-1.577.113-2.507.586-5.2.912-5.2.197 0 .244-.3.103-.666-.17-.445-.101-.57.21-.378.763.472.632-62.149-.133-63.24-.586-.838-.866-2.311-1.152-6.078-.11-1.435-.38-2.282-.804-2.52-.491-.275-.64-1.007-.64-3.15 0-2.114-.146-2.849-.6-3.023-.424-.163-.6-.825-.6-2.256 0-1.205-.234-2.285-.578-2.664-.317-.351-.632-1.491-.7-2.532-.067-1.041-.268-1.893-.446-1.893s-.219-.169-.091-.375c.127-.207-.029-.522-.349-.701-.337-.188-.634-1.08-.708-2.124-.084-1.176-.301-1.765-.628-1.7-.346.069-.5-.509-.5-1.88 0-1.37-.19-2.087-.618-2.326-.346-.194-.68-1.039-.759-1.92-.078-.866-.16-1.72-.182-1.898-.023-.178-.209-.22-.413-.093-.525.324-.779-.222-.893-1.917-.054-.806-.293-1.466-.532-1.466-.238 0-.481-.405-.539-.9-.058-.495-.142-1.217-.185-1.605-.043-.388-.227-.658-.407-.6-.446.143-1.171-1.212-.891-1.665.341-.551-.522-2.514-.98-2.23-.224.138-.423-.204-.451-.776-.071-1.445-.089-1.502-.895-2.706-.398-.596-.607-1.272-.464-1.503.143-.231-.004-.522-.326-.646-.323-.123-.702-.839-.843-1.591-.141-.752-.473-1.324-.739-1.272-.28.054-.536-.462-.61-1.229-.07-.728-.385-1.422-.7-1.543-.315-.121-.573-.649-.573-1.173 0-.525-.36-1.179-.8-1.454-.486-.303-.8-.933-.8-1.603 0-.67-.197-1.065-.5-1.004-.282.056-.556-.385-.628-1.014-.07-.613-.457-1.32-.86-1.571-.403-.252-.648-.677-.545-.945.103-.268-.195-.754-.661-1.081-.467-.327-.877-.975-.912-1.442-.036-.466-.282-.847-.547-.847-.266 0-.602-.54-.747-1.2-.145-.66-.429-1.2-.632-1.2-.202 0-.368-.281-.368-.624 0-.343-.18-.512-.4-.376-.22.136-.4-.134-.4-.6 0-.466-.18-.736-.4-.6-.226.14-.4-.187-.4-.749 0-.642-.282-1.087-.792-1.248-.435-.139-.776-.376-.757-.527.087-.679-.577-2.046-.896-1.848-.195.121-.355-.142-.355-.585 0-.442-.248-.947-.552-1.123-.303-.176-.915-1.003-1.359-1.837-.444-.835-1.154-1.825-1.578-2.2-.424-.376-1.022-1.257-1.328-1.959-.307-.702-.901-1.366-1.322-1.476-.542-.142-.685-.408-.492-.912.15-.391.152-.591.005-.443-.32.32-1.374-.651-1.374-1.264 0-.236-.27-.429-.6-.429-.333 0-.6-.356-.6-.8 0-.44-.18-.8-.4-.8-.22 0-.4-.18-.4-.4 0-.22.227-.4.504-.4s.733-.367 1.013-.816c.28-.448.683-.707.896-.576.213.132.393.004.4-.284.021-.809 1.438-2.324 2.175-2.324.362 0 .552-.174.42-.387-.131-.213.128-.616.576-.896.449-.28.816-.747.816-1.037 0-.29.154-.432.343-.315.189.117.68-.413 1.091-1.176.411-.764.887-1.389 1.057-1.389.17 0 .309-.281.309-.624 0-.343.18-.512.4-.376.22.136.4-.033.4-.376 0-.343.225-.579.5-.524.288.058.557-.401.634-1.081.074-.65.386-1.37.693-1.6.307-.23.621-.849.699-1.376.077-.526.463-1.192.857-1.48.409-.299.616-.79.481-1.142-.131-.339.117-1.443.549-2.452.878-2.048 1.204-12.969.387-12.969-.22 0-.4-.349-.4-.776 0-.427-.185-.891-.411-1.031a.785.785 0 01-.337-.723c.118-.749-.501-1.887-.894-1.644-.197.122-.358-.13-.358-.56 0-.429-.27-.884-.6-1.011-.33-.126-.6-.606-.6-1.066 0-.46-.18-.725-.4-.589-.22.136-.4-.044-.4-.4 0-.356-.18-.536-.4-.4-.22.136-.4.057-.4-.176 0-.233-.27-.424-.6-.424-.33 0-.6-.264-.6-.586 0-.526-.682-1.085-1.8-1.475-.22-.076-.355-.274-.3-.439.086-.258-1.505-.489-2.4-.347-.165.026-.3-.223-.3-.553 0-.88-14.261-.892-15.424-.013-.427.323-1.194.593-1.705.6-.51.007-1.198.283-1.528.613-.33.33-1.037.6-1.572.6-.534 0-.971.191-.971.424 0 .233-.181.311-.403.174-.221-.137-.511.033-.643.377s-.417.625-.634.625c-.216 0-.848.358-1.404.795-.555.437-1.169.696-1.363.576-.194-.12-.353.062-.353.405s-.258.624-.573.624c-.315 0-.687.36-.827.8-.231.727-.675.978-1.5.847-.165-.026-.3.119-.3.322 0 .522-2.318 2.78-2.582 2.516-.12-.12-.218.082-.218.448 0 .367-.27.667-.6.667-.33 0-.6.178-.6.395 0 1.49-3.228 2.752-3.725 1.456-.116-.302-1.035-.948-2.043-1.435-1.007-.488-1.832-1.141-1.832-1.452 0-.31-.135-.543-.3-.517-.799.126-1.29-.094-1.2-.538.055-.269-.305-.552-.8-.627-.495-.076-.9-.395-.9-.71 0-.315-.341-.572-.757-.572-.417 0-.862-.273-.99-.606-.128-.333-.687-.779-1.243-.99-.555-.211-1.01-.569-1.01-.794 0-.226-.338-.41-.751-.41s-.975-.27-1.249-.6c-.274-.33-.746-.6-1.049-.6-.303 0-.551-.175-.551-.39 0-.54-2.227-1.643-2.613-1.294-.174.156-.189.064-.035-.204.179-.312-.086-.581-.733-.743-.557-.14-.913-.417-.79-.616s-.334-.474-1.017-.611c-.682-.136-1.459-.539-1.726-.895-.267-.356-.756-.702-1.086-.769-.33-.067-.8-.382-1.044-.7-.244-.318-.93-.578-1.524-.578-.593 0-.976-.167-.85-.371.248-.401-1.264-1.047-2.082-.89-.275.053-.5-.171-.5-.498 0-.327-.208-.722-.462-.879-.314-.194-.352-.106-.12.276.188.309-.312.067-1.111-.538-.8-.605-1.872-1.1-2.384-1.1-.512 0-1.163-.372-1.447-.827-.284-.454-.732-.747-.996-.651-.264.097-.84-.145-1.28-.537-.44-.392-1.25-.775-1.8-.849-.55-.075-1.238-.361-1.529-.636-.29-.275-.922-.5-1.403-.5-.482 0-1.1-.36-1.375-.8-.275-.44-.926-.8-1.447-.8-.522 0-1.139-.23-1.372-.511-.233-.281-.93-.552-1.549-.603-.619-.051-1.183-.266-1.254-.477-.071-.211-.791-.502-1.6-.647-.809-.145-1.796-.548-2.194-.896-.398-.347-1.207-.696-1.798-.776-.592-.079-1.346-.364-1.677-.633-.331-.268-1.142-.543-1.802-.61-.66-.066-1.484-.374-1.831-.684-.348-.31-1.408-.563-2.356-.563-1.134 0-1.888-.224-2.203-.653-.395-.541-2.49-1.149-4.91-1.424-.275-.031-.5-.206-.5-.39 0-.183-.821-.333-1.824-.333-1.003 0-1.724-.161-1.602-.358.336-.543-.803-.842-3.207-.842-1.192 0-2.167-.18-2.167-.4 0-.22-.27-.4-.6-.4-.33 0-.6-.18-.6-.4 0-.22-.945-.402-2.1-.404-3.118-.007-5.476-.445-4.483-.834.473-.185-.449-.317-2.331-.334-1.943-.017-3.447-.239-4-.59-.487-.309-2.011-.687-3.386-.839l-2.5-.278V53.2l7.3-.03c7.721-.031 9.218-.155 9.433-.782.074-.213.917-.388 1.873-.388 1.357 0 1.793-.167 1.981-.759.165-.52.491-.693 1.036-.551.528.138 1.127-.151 1.788-.864.546-.589 1.172-.96 1.391-.825.219.135.398.068.398-.15 0-.219.405-.521.9-.671 1.183-.361 2.339-1.394 2.061-1.843-.121-.196.018-.307.309-.247.292.061.485-.115.43-.39-.055-.275.035-.455.2-.4.165.055.705-.305 1.2-.8.495-.495.765-.911.6-.925-.165-.014.117-.193.626-.397.509-.204.813-.553.676-.775-.137-.221-.059-.403.174-.403.233 0 .379-.135.324-.3-.055-.165.071-.332.28-.37.313-.058 1.024-1.33 1.191-2.13.023-.11.214-.47.425-.8.211-.33.335-.96.276-1.4-.079-.588-.012-.659.254-.266.524.77 1.131-.694 1.351-3.257.053-.618.334-1.32.624-1.561.775-.643.652-11.513-.136-12.1-.323-.24-.588-1.234-.628-2.353-.048-1.343-.264-2.018-.703-2.2-.349-.145-.652-.488-.674-.763-.022-.275-.067-.879-.1-1.343-.037-.524-.261-.765-.594-.638-.341.131-.783-.4-1.225-1.473-.381-.923-1.401-2.281-2.267-3.018a86.127 86.127 0 01-3.368-3.084c-.987-.959-2.167-1.744-2.624-1.744-.456 0-.718-.18-.582-.4.136-.22-.044-.4-.4-.4-.392 0-.533-.184-.358-.468.191-.308.077-.386-.334-.229-.372.143-.987-.149-1.529-.725l-.906-.965-46.637.017c-25.65.01-47.023.174-47.495.366M219.8 92.712c1.1.251 3.53.641 5.4.865 4.381.526 6.632.962 13.6 2.635 6.973 1.674 9.806 2.481 15.2 4.331 6.974 2.392 7.785 2.698 8.18 3.085.209.205.624.372.922.372.518 0 1.592.442 6.498 2.676 29.75 13.543 55.045 35.161 72.459 61.924 3.866 5.942 4.702 7.295 6.3 10.2 2.814 5.115 9.241 18.457 9.241 19.185 0 .295.952 2.629 2.233 5.475.312.694.567 1.551.567 1.906s.18.957.399 1.339c.558.972 2.401 6.855 2.401 7.666 0 .368.166.84.369 1.049.203.209.556 1.28.785 2.38.228 1.1.795 3.53 1.258 5.4a123.515 123.515 0 012.416 12.4c.232 1.65.636 4.26.897 5.8.318 1.876.475 8.741.475 20.8 0 12.059-.157 18.924-.475 20.8-.261 1.54-.681 4.24-.931 6-.913 6.404-2.523 14.146-3.207 15.425-.213.397-.387 1.127-.387 1.621 0 .801-.893 3.996-2.055 7.354-.228.66-.567 1.74-.753 2.4-.482 1.713-1.53 4.589-2.21 6.06-.32.694-.582 1.538-.582 1.877 0 .339-.16.715-.356.836-.195.121-.478.71-.629 1.309-.931 3.71-11.875 25.178-13.077 25.651-.186.074-.338.315-.338.537 0 .523-4.314 6.983-8.207 12.291-6.491 8.848-17.54 20.594-26.193 27.842-2.09 1.751-4.041 3.415-4.337 3.698-.295.283-2.365 1.811-4.6 3.395-2.234 1.584-4.153 2.981-4.263 3.104-1.212 1.356-14.128 9.052-20.6 12.274-2.2 1.096-4.36 2.176-4.8 2.4-1.502.767-3.598 1.685-6.2 2.716-1.43.566-2.913 1.206-3.295 1.42-.382.215-.894.39-1.139.39s-1.012.266-1.706.591c-.693.325-2.7 1.049-4.46 1.609-1.76.56-3.56 1.178-4 1.375-.755.337-1.438.531-5.8 1.646-.99.253-2.7.703-3.8.999-5.089 1.373-8.974 2.172-14.6 3.005-1.43.211-4.67.697-7.2 1.08-6.693 1.011-32.907 1.011-39.6 0-2.53-.383-5.86-.883-7.4-1.113-4.711-.702-6.848-1.09-9.885-1.799-4.664-1.088-11.777-3.024-14.115-3.843-.66-.231-1.74-.572-2.4-.758-1.92-.54-4.741-1.564-5.495-1.995-.382-.218-.922-.403-1.2-.411-.278-.007-1.225-.361-2.105-.786-.88-.425-1.842-.779-2.138-.786-.296-.008-1.016-.277-1.6-.598-.584-.32-1.962-.968-3.062-1.439-3.581-1.534-14.246-6.961-16.6-8.449-.55-.347-2.98-1.858-5.4-3.358-6.479-4.015-14.553-9.976-20.787-15.348-1.534-1.322-16.161-15.966-17.225-17.246-12.317-14.809-20.699-28.04-26.973-42.576-.475-1.1-1.112-2.54-1.416-3.2-1.75-3.804-6.199-16.38-6.199-17.525 0-.377-.174-.998-.387-1.38-.525-.942-1.988-6.791-3.226-12.895-.245-1.21-.703-3.396-1.017-4.857-.313-1.462-.57-3.476-.57-4.475 0-1-.306-3.045-.68-4.543-.901-3.616-1.057-35.714-.191-39.325.291-1.21.693-3.891.895-5.958.202-2.068.536-4.318.744-5 .207-.683.558-2.322.778-3.642.618-3.694 2.049-9.655 3.072-12.8.287-.88.645-2.23.798-3 .152-.77.409-1.58.572-1.8.162-.22.485-1.12.717-2 .632-2.396 1.929-5.972 3.366-9.278.401-.923.729-1.885.729-2.138 0-.253.263-.938.584-1.522.32-.584.965-1.962 1.433-3.062 9.67-22.758 27.857-46.395 48.783-63.401 1.21-.983 2.29-1.901 2.4-2.04.355-.447 5.275-3.908 10-7.032a955.468 955.468 0 005.612-3.732c.557-.379 1.727-1.084 2.6-1.565.874-.482 2.668-1.488 3.988-2.235 1.32-.746 4.56-2.429 7.2-3.74 4.186-2.077 6.171-3.001 9.6-4.47 1.233-.528 4.545-1.817 7.2-2.802a331.9 331.9 0 003.2-1.2c1.863-.721 4.919-1.66 6.506-1.998.938-.2 2.022-.532 2.409-.739.386-.207 1.599-.566 2.694-.798 4.341-.92 7.36-1.656 8.376-2.042.587-.223 1.653-.406 2.368-.406.716 0 2.189-.263 3.274-.585 1.085-.321 3.863-.79 6.173-1.041 2.31-.251 5.19-.599 6.4-.773 3.417-.492 35.441-.229 37.8.311m-72.467 33.499c0 .692.734.589.975-.136.087-.261-.096-.475-.408-.475-.312 0-.567.275-.567.611m-38.726 21.618c-.824.763-.994 1.144-.658 1.48.335.335.451.276.451-.229 0-.374.249-.68.553-.68.305 0 .648-.36.763-.8.266-1.017.226-1.008-1.109.229M98.533 156.5c-4.809 4.603-7.828 7.789-8.533 9.004-.33.569-.93 1.378-1.333 1.799-.837.871-.703 1.239.309.851.527-.202.569-.341.178-.582-.355-.22-.182-.4.564-.587.592-.149.991-.409.886-.579-.105-.17 2.416-2.956 5.603-6.192 3.186-3.236 5.793-6.059 5.793-6.273 0-.213.208-.26.462-.103.286.177.353.11.176-.176-.426-.69-.397-.711-4.105 2.838m-14.334 15.783c-.769.816-1.399 1.646-1.399 1.844 0 .198-.356.746-.791 1.217-2.361 2.557-3.197 3.746-3.203 4.556-.009 1.305.557 1.105 1.422-.5.415-.77.893-1.4 1.063-1.4.17 0 .309-.251.309-.557 0-.307.27-.661.6-.788.33-.126.6-.478.6-.78 0-.303.361-.878.802-1.277.442-.4.713-.816.603-.926-.11-.11.137-.436.548-.724.655-.459 1.448-2.148 1.009-2.148-.09 0-.793.668-1.563 1.483m-6.626 8.987a13.376 13.376 0 01-1.073 1.35c-.6.627-.653 1.638-.104 1.978.218.134.702-.395 1.074-1.177.373-.781.825-1.421 1.004-1.421.424 0 .423-1.093-.001-1.355-.18-.111-.585.17-.9.625m-2.884 4.335c-.379.442-.689.896-.689 1.008 0 .111-.45.916-1 1.787-1.094 1.734-1.248 2.6-.538 3.038.286.177.353.11.176-.176-.162-.262-.052-.462.253-.462.296 0 .568-.389.604-.864.036-.475.299-1.012.585-1.194.286-.181.34-.335.12-.342-.259-.008-.256-.116.009-.306.566-.407 1.791-2.376 1.791-2.88 0-.653-.561-.486-1.311.391m-4.468 7.562c-.544.861-1.106 2.031-1.248 2.6-.143.568-.42 1.033-.616 1.033a.36.36 0 00-.357.361c0 .198-.734 1.953-1.631 3.9-.897 1.946-1.779 3.899-1.96 4.339-.181.44-.707 1.653-1.169 2.696-.462 1.042-.841 2.032-.842 2.2-.002.167-.246.771-.544 1.341-.298.571-.66 1.668-.804 2.439-.145.77-.62 2.14-1.057 3.043-.436.903-.793 2-.793 2.438 0 .438-.159.894-.354 1.014-.464.287-.8 2.61-.412 2.85.593.366 1.566-1.101 1.566-2.361 0-.705.28-1.682.623-2.171.342-.489.5-.889.351-.889-.15 0-.05-.268.222-.595.271-.327.384-.88.25-1.23-.134-.349.026-.904.355-1.233.33-.33.622-.946.649-1.371.027-.424.095-.951.15-1.171.055-.22.123-.67.15-1 .028-.33.32-.6.65-.6.397 0 .6-.397.6-1.176 0-.647.18-1.288.4-1.424.22-.136.4-.607.4-1.047 0-.44.181-.689.401-.552.235.145.345-.122.266-.642-.075-.489.194-1.22.598-1.624.404-.404.735-1.073.735-1.486 0-.413.27-.975.6-1.249.33-.274.6-.825.6-1.225 0-.4.183-.841.407-.979.223-.138.314-.4.202-.582-.113-.181.09-.443.451-.582.36-.138.544-.361.409-.496-.135-.135.109-.744.543-1.353.433-.608.788-1.374.788-1.702 0-.327.27-.699.6-.826.659-.252.841-2.255.205-2.255-.217 0-.84.705-1.384 1.567M57.9 225.518c-.428.086-.7.506-.7 1.079 0 .515-.109 1.222-.243 1.57-.454 1.185.836.659 1.376-.56.653-1.476.488-2.274-.433-2.089m-2.044 5.982c-.545 1.928-.699 4.1-.291 4.1.239 0 .435-.234.435-.52 0-.286.21-.73.466-.986.742-.742.875-3.294.172-3.294-.321 0-.673.315-.782.7m-1.456 7.667c0 .862-.117 1.873-.261 2.246-.216.565-.098.629.7.383 1.285-.395 1.437-.578.807-.968-.372-.23-.399-.41-.089-.602.825-.509.537-2.626-.357-2.626-.664 0-.8.267-.8 1.567m-.455 7.5c-.541.144-.687.925-.836 4.454-.188 4.452-.071 5.074.847 4.506.707-.437.961-3.704.321-4.112-.326-.207-.335-.305-.029-.309.273-.004.469-.939.502-2.406.03-1.32.008-2.379-.048-2.354a10.51 10.51 0 01-.757.221M53.09 270.3c-.584 1.112.245 8.9.947 8.9.679 0 .741-.334.687-3.7-.071-4.455-.803-6.783-1.634-5.2m1.277 13.466c-.535.535.265 4.432.936 4.56.616.117.691-.158.6-2.191-.095-2.149-.748-3.156-1.536-2.369m1.027 8.334c.541 3.481 1.812 4.884 1.8 1.987-.007-1.674-.502-2.715-1.112-2.338-.246.153-.325-.064-.198-.548.124-.474.012-.801-.273-.801-.341 0-.404.495-.217 1.7m1.617 6.4c.36 2.177.535 2.443 1.225 1.87.619-.513.775-1.97.211-1.97-.195 0-.448-.36-.563-.8-.427-1.632-1.166-.87-.873.9m1.198 3.885c-.121.196.033 1.134.342 2.085.309.952.684 2.264.834 2.916.151.652.62 1.948 1.044 2.878.424.931.771 2.062.771 2.514 0 .452.16.822.355.822.196 0 .468.595.604 1.322.137.728.607 2.026 1.045 2.885.438.859.796 1.794.796 2.078 0 .283.18.515.4.515.22 0 .399.315.397.7-.001.385 1.146 3.04 2.55 5.9 1.405 2.86 2.664 5.47 2.8 5.8.136.33 1.051 1.86 2.033 3.4.982 1.54 1.794 2.982 1.803 3.205.009.223.467.743 1.017 1.156.55.413 1 1.053 1 1.423 0 .37.585 1.379 1.3 2.244.715.865 1.645 2.202 2.066 2.972.421.77 1.321 1.958 2 2.641.679.682 1.577 1.897 1.997 2.7.42.802.915 1.459 1.1 1.459.185 0 .337.227.337.504 0 .692 1.493 1.592 1.805 1.088.328-.531-.125-1.192-.816-1.192-.362 0-.472-.239-.308-.666.171-.447.102-.57-.213-.376-.257.159-.468.08-.468-.177 0-.256-.45-1-1-1.654-.55-.654-1-1.455-1-1.781 0-.326-.181-.481-.403-.344-.221.137-.518-.052-.659-.42-.142-.368-.68-1.126-1.198-1.684-.517-.558-.94-1.157-.94-1.332 0-.174-.525-.892-1.167-1.594-.642-.703-1.078-1.511-.969-1.795.109-.285-.265-.822-.833-1.193-.567-.372-1.031-1.015-1.031-1.43 0-.415-.18-.754-.4-.754-.22 0-.4-.45-.4-1 0-.622-.227-1-.6-1-.33 0-.6-.345-.6-.767 0-1.192-.431-2.033-1.043-2.033-.306 0-.557-.36-.557-.8 0-.44-.177-.8-.392-.8-.216 0-.51-.469-.654-1.042-.144-.573-.662-1.794-1.152-2.715-.489-.92-1.069-2.027-1.289-2.458a251.41 251.41 0 00-1.056-2.047c-.361-.694-.657-1.599-.657-2.011 0-.412-.356-1.054-.792-1.427-.482-.413-.702-.956-.562-1.389.193-.597.16-.615-.202-.111-.343.477-.433.328-.438-.724-.003-.779-.17-1.222-.406-1.076-.223.138-.422-.205-.45-.776-.083-1.697-.129-1.84-.7-2.193-.302-.187-.55-.851-.55-1.476s-.254-1.523-.563-1.996c-.31-.472-.645-1.287-.744-1.809-.473-2.499-.685-3.15-1.025-3.15-.202 0-.368-.63-.368-1.4 0-1.392-1.339-3.346-1.791-2.615M88.277 358.5c.859 1.545 13.006 13.9 13.666 13.9.251 0 .454-.315.451-.7-.005-.598-.063-.613-.394-.1-.334.517-.389.506-.394-.077-.003-.373-.365-.929-.803-1.236-.439-.307-.679-.678-.534-.823.145-.145-.036-.264-.402-.264-.764 0-2.267-1.371-2.267-2.067 0-.256-.108-.358-.24-.227-.283.284-2.56-1.958-2.56-2.52 0-.212-.27-.386-.6-.386-.33 0-.6-.241-.6-.535 0-.294-.9-1.458-2-2.588-1.1-1.129-2-2.238-2-2.465 0-.227-.27-.412-.6-.412-.33 0-.6-.18-.6-.4 0-.22-.19-.4-.423-.4-.235 0-.102.576.3 1.3m19.496 18.344c-.151.244.226.874.839 1.4 1.202 1.033 1.788 1.206 1.788.527 0-.745-1.115-1.578-1.775-1.325-.463.177-.567.069-.387-.401.281-.732-.049-.874-.465-.201m4.879 3.471c-.303.49 1.662 2.485 2.447 2.485.402 0 .407-.161.025-.773-.266-.426-.615-.741-.775-.7-.161.04-.548-.269-.86-.688-.368-.493-.661-.607-.837-.324M150.4 400.8c0 .44.18.8.4.8.22 0 .4-.36.4-.8 0-.44-.18-.8-.4-.8-.22 0-.4.36-.4.8m4.206 1.19c-.315.51.34.814.947.439.401-.248.378-.37-.107-.556-.341-.131-.719-.078-.84.117m15.633 3.948c-.139.223-.057.527.181.674.615.381 1.012-.14.498-.654-.287-.287-.511-.294-.679-.02" fill="#dcdcdc"/><path id="path2" d="M182.4 92.816c-1.04.17-.111.207 2.2.087 2.2-.114 4.075-.274 4.167-.356.278-.246-4.445-.047-6.367.269m28.707-.126c.719.089 1.799.087 2.4-.004s.013-.164-1.307-.162c-1.32.002-1.812.077-1.093.166m4.393.392a5.661 5.661 0 001.8 0c.495-.095.09-.173-.9-.173s-1.395.078-.9.173m-40.4.8a5.661 5.661 0 001.8 0c.495-.095.09-.173-.9-.173s-1.395.078-.9.173m46.8 0a5.661 5.661 0 001.8 0c.495-.095.09-.173-.9-.173s-1.395.078-.9.173m-51.1.518c-.792.254-.833.32-.2.32.44 0 1.25-.144 1.8-.32.792-.254.833-.32.2-.32-.44 0-1.25.144-1.8.32m55.4 0c1.692.431 3.144.431 1.8 0-.55-.176-1.45-.317-2-.313-.898.007-.878.039.2.313m-62.6 1.4c-1.83.705-1.122.71 1.4.009 1.158-.321 1.579-.554 1-.552-.55.002-1.63.246-2.4.543m71 .2c.44.189 1.07.344 1.4.344.378 0 .304-.127-.2-.344-.44-.189-1.07-.344-1.4-.344-.378 0-.304.127.2.344m-76.2 1c-1.867.719-1.061.733 1.2.021.99-.312 1.44-.566 1-.564-.44.002-1.43.246-2.2.543m80.8.021c.99.312 1.98.556 2.2.542.7-.042-2.366-1.102-3.2-1.106-.44-.002.01.252 1 .564m10.346 2.795c.74.321 1.55.577 1.8.568.25-.008-.152-.278-.892-.6-.74-.321-1.55-.577-1.8-.568-.25.008.152.278.892.6m-104.946 1.17c-1.545.707-.826.717 1 .014.77-.297 1.13-.545.8-.552-.33-.006-1.14.235-1.8.538m109.6.428c.66.303 1.47.544 1.8.538.33-.007-.03-.255-.8-.552-1.826-.703-2.545-.693-1 .014m10.144 3.795c.959.435 1.859.783 2 .774.505-.033-2.557-1.55-3.144-1.557-.33-.005.185.348 1.144.783m3.256 1.391c.55.314 1.18.572 1.4.572.22 0-.05-.258-.6-.572-.55-.314-1.18-.572-1.4-.572-.22 0 .05.258.6.572m3.2 1.4c.77.422 1.58.766 1.8.766.22 0-.23-.344-1-.766-.77-.422-1.58-.766-1.8-.766-.22 0 .23.344 1 .766m-152.1 4.229c-1.495.811-1.404 1.149.1.371.66-.341 1.2-.706 1.2-.81 0-.258-.043-.243-1.3.439m162.3.971c.66.437 1.38.795 1.6.796.22 0-.189-.358-.91-.797-1.698-1.036-2.254-1.035-.69.001m-88.614 3.017c-.351.422-.382.747-.101 1.028s.473.087.608-.617c.229-1.199.18-1.239-.507-.411m94.038-.098c.33.386 7.176 4.653 7.176 4.473 0-.084-.765-.674-1.7-1.31-1.941-1.32-5.812-3.556-5.476-3.163m-108.588 1.441c-.45.498-.541.852-.262 1.024.234.145.426-.017.426-.36 0-.562.467-.803 1.3-.671.165.026.3-.133.3-.353 0-.662-1.03-.451-1.764.36m-71.62 2.066c-1.312.87-2.572 1.797-2.8 2.059-.314.359-.268.376.184.068.33-.224 1.635-1.08 2.9-1.902 1.265-.822 2.3-1.574 2.3-1.672 0-.268-.016-.259-2.584 1.447m57.484.661c-.807.29-.573 1.313.3 1.313.44 0 .8-.259.8-.576 0-.696-.423-.979-1.1-.737m-4.6 1.07c-.762.578-.941 1.443-.3 1.443.22 0 .4-.251.4-.557 0-.625 1.078-1.166 1.636-.821.2.124.364.035.364-.198 0-.588-1.256-.508-2.1.133m-58.7 2.285c-3.14 2.293-3.469 2.808-.478.748 2.144-1.476 3.284-2.442 2.802-2.372-.068.01-1.114.741-2.324 1.624m53.7-.977c-.604.243-.659 1.19-.09 1.541.225.139.384.105.353-.076-.179-1.027.051-1.476.517-1.01.694.694 1.31.591.72-.12-.522-.629-.683-.665-1.5-.335M150 124.2c-.274.33-.98.6-1.569.6s-1.287.216-1.551.48c-.561.561-.639 1.52-.124 1.52.195 0 .33-.315.3-.7-.045-.558.268-.701 1.544-.706 1.054-.005 1.566-.175 1.5-.5-.055-.272.271-.494.724-.494.453 0 .712-.18.576-.4-.349-.565-.821-.497-1.4.2m149.2.323c0 .089 1.035.936 2.3 1.881 1.265.946 2.04 1.407 1.723 1.024-.595-.717-4.023-3.193-4.023-2.905m-203.8 2.921l-1.6 1.432 1.7-1.272c1.463-1.094 1.991-1.621 1.6-1.598-.055.003-.82.65-1.7 1.438m47.48-.564c-.532.532-.649 1.522-.18 1.517.165-.002.508-.452.762-1 .492-1.061.211-1.31-.582-.517m-2.894 1.337c-.388.467-.4.729-.049 1.08.351.351.463.258.463-.384 0-.465.225-.937.5-1.048.314-.127.332-.214.049-.233-.248-.018-.681.246-.963.585m165.214.708c0 .069.585.654 1.3 1.3l1.3 1.175-1.175-1.3c-1.095-1.212-1.425-1.484-1.425-1.175m-168.395.672c-.333.205-.408.59-.208 1.063.282.665.344.639.618-.26l.305-1 .046 1c.037.798.125.879.434.4.698-1.08-.097-1.882-1.195-1.203M89 132.633l-2.4 2.232 2.5-2.092c2.223-1.861 2.743-2.375 2.4-2.372-.055 0-1.18 1.005-2.5 2.232m44.986-1.616c-.388.467-.4.729-.049 1.08.351.351.463.239.463-.46 0-.656.174-.856.6-.692.33.126.6.056.6-.158 0-.604-1.046-.455-1.614.23m-2.807 1.638c-.221.581-.299 1.158-.174 1.283s.331-.17.458-.655c.134-.516.543-.883.984-.883.414 0 .753-.18.753-.4 0-.895-1.633-.365-2.021.655m-3.552 1.669c-.907.588-1.428 1.142-1.158 1.232.27.09.561-.047.647-.304.283-.848 2.484-1.789 2.484-1.062 0 .335.18.61.4.61.609 0 .477-1.085-.162-1.33-.309-.119-1.304.266-2.211.854M312 134.85c.55.548 3.79 3.681 7.2 6.962 5.211 5.015 5.498 5.246 1.8 1.449-2.42-2.485-5.66-5.618-7.2-6.962-1.54-1.345-2.35-1.997-1.8-1.449m-228.2 2.236c-1.32 1.238-1.86 1.876-1.2 1.417 1.151-.799 4.148-3.722 3.778-3.685-.098.01-1.258 1.031-2.578 2.268m40.4-.686c-.147.463-.621.812-1.127.828-.839.027-.841.041-.073.345.939.371 1.897.107 1.563-.432-.127-.207-.014-.638.252-.959.306-.369.329-.582.061-.582-.232 0-.536.36-.676.8m-3.7 2.046c-1.283.821-1.587 1.168-1 1.14.331-.016 2.821-1.985 2.5-1.977-.11.002-.785.379-1.5.837m-2.633 1.421c-.147.146-.267.596-.267 1 0 .459-.29.733-.777.733-.761 0-3.623 1.484-3.623 1.879 0 .11.619-.165 1.376-.612 1.249-.737 1.388-.75 1.51-.139.117.582.236.555.896-.208.418-.483.907-.789 1.085-.679.178.11.216-.081.084-.425-.132-.345-.018-.894.253-1.221.478-.576.001-.867-.537-.328m-6.134 4.633c-.446.495-1.154 1.129-1.572 1.408-.664.444-.642.452.173.068 1.054-.497 1.761-.134.854.44-.323.204-.408.369-.188.365.802-.013 1.602-1.007 1.675-2.081.091-1.328.078-1.331-.942-.2m-37.958 2.8l-1.175 1.3 1.3-1.175c.715-.646 1.3-1.231 1.3-1.3 0-.309-.33-.037-1.425 1.175m32.697 1.303c-.477.548-1.048.997-1.269.997-.222 0-.403.169-.403.376 0 .322.512.336 2.549.07.192-.025.113-.33-.174-.676-.433-.522-.427-.691.039-.979.31-.191.464-.446.344-.566-.12-.121-.609.23-1.086.778m219.928.797c.746.77 1.447 1.4 1.557 1.4.11 0-.411-.63-1.157-1.4-.746-.77-1.447-1.4-1.557-1.4-.11 0 .411.63 1.157 1.4m-256.022 1.7L69 152.6l1.5-1.378c1.396-1.284 1.684-1.622 1.378-1.622-.066 0-.741.675-1.5 1.5m32.792.368l-.97 1.068 1.087-.768c.599-.422 1.094-.903 1.1-1.068.021-.493-.198-.354-1.217.768m227.23 2.657c0 .069.585.654 1.3 1.3l1.3 1.175-1.175-1.3c-1.095-1.212-1.425-1.484-1.425-1.175M94.01 159.79c-1.19 1.205-2.084 2.255-1.987 2.334.098.08 1.196-.906 2.442-2.19 1.246-1.284 2.14-2.334 1.987-2.334-.154 0-1.253.986-2.442 2.19m-30.466-.29c-1.151 1.389-1.638 2.1-1.44 2.1.11 0 .682-.63 1.269-1.4 1.09-1.429 1.222-1.968.171-.7m-2.744 3.7c-.47.66-.764 1.2-.654 1.2.11 0 .584-.54 1.054-1.2.47-.66.764-1.2.654-1.2-.11 0-.584.54-1.054 1.2m28.632 1.513l-.768 1.087 1.068-.97c1.122-1.019 1.261-1.238.768-1.217-.165.006-.646.501-1.068 1.1M58.8 166c-.47.66-.764 1.2-.654 1.2.11 0 .584-.54 1.054-1.2.47-.66.764-1.2.654-1.2-.11 0-.584.54-1.054 1.2m26.3 3.802c-2.831 3.437-6.109 7.904-4.109 5.598.573-.66 1.979-2.352 3.125-3.759l3.03-3.722c.52-.639.88-1.214.8-1.279-.081-.064-1.361 1.359-2.846 3.162m258.515 2.398c.002.22.371.85.821 1.4.543.664.679.731.404.2-.674-1.305-1.228-2.028-1.225-1.6m-289.501 1.1c-.826 1.075-3.392 5.555-3.257 5.685.079.076.989-1.284 2.024-3.023 1.727-2.905 2.195-3.915 1.233-2.662m22.842 7.365c-1.376 2.205-1.305 2.186.684-.191.242-.29.347-.62.232-.735-.114-.115-.527.302-.916.926m-28.375 2.172c-.352.681-.569 1.308-.482 1.395.087.087.457-.47.823-1.237.822-1.725.537-1.857-.341-.158m-2.8 5.6c-.352.681-.569 1.308-.482 1.395.087.087.457-.47.823-1.237.822-1.725.537-1.857-.341-.158m25.488 1.363c-.656 1.21-1.026 2.097-.823 1.971.412-.254 2.469-4.171 2.191-4.171-.097 0-.713.99-1.368 2.2m-27.797 3.619c-.94 1.97-.808 2.305.175.443.446-.846.74-1.608.654-1.695-.087-.086-.46.477-.829 1.252m-1.407 3.198c-.67 1.471-.542 1.785.182.448.339-.625.541-1.211.449-1.302-.091-.092-.375.293-.631.854M357.228 199c0 .22.258.85.572 1.4.314.55.572.82.572.6 0-.22-.258-.85-.572-1.4-.314-.55-.572-.82-.572-.6m-292.156 2.819c-.94 1.97-.808 2.305.175.443.446-.846.74-1.608.654-1.695-.087-.086-.46.477-.829 1.252m293.356.381c0 .22.258.85.572 1.4.314.55.572.82.572.6 0-.22-.258-.85-.572-1.4-.314-.55-.572-.82-.572-.6m-295.963 5.617c-.67 1.471-.542 1.785.182.448.339-.625.541-1.211.449-1.302-.091-.092-.375.293-.631.854m-.95 2.393a39.61 39.61 0 01-.495 1.59c-.149.44.022.294.38-.324s.581-1.334.495-1.59c-.085-.256-.256-.11-.38.324m301.324 4.99c-.015.11.228 1.01.54 2 .312.99.571 1.44.576 1 .008-.697-1.047-3.529-1.116-3m-327.79 1.415a3.854 3.854 0 00-.215 1.318c.019.367.193.136.387-.513.377-1.262.244-1.887-.172-.805m23.666 1.595a39.61 39.61 0 01-.495 1.59c-.149.44.022.294.38-.324s.581-1.334.495-1.59c-.085-.256-.256-.11-.38.324m-1.286 4.419c-.148.586-.191 1.143-.097 1.237.095.094.292-.308.439-.895.148-.586.191-1.143.097-1.237-.095-.094-.292.308-.439.895M365.268 225c-.006.44.143 1.16.332 1.6.438 1.019.438-.032 0-1.4-.257-.804-.323-.843-.332-.2m-309.346 3.2c-.136.66-.356 1.65-.489 2.2-.164.68-.041.569.384-.349.344-.743.564-1.733.489-2.2-.11-.69-.183-.624-.384.349m-1.291 5.7c-.616 3.575-.649 3.932-.288 3.1.409-.945.986-4.6.726-4.6-.099 0-.296.675-.438 1.5m313.062 3.7c0 .77.082 1.085.183.7.1-.385.1-1.015 0-1.4-.101-.385-.183-.07-.183.7m-314.68 6.405c-.405 3.083-.619 5.723-.475 5.867.144.144.264-.264.266-.905.013-3.252 1.168-5.581 1.72-3.467.101.385.204-.046.23-.957.031-1.116-.144-1.731-.537-1.881-.451-.173-.53-.682-.345-2.243.132-1.11.158-2.019.059-2.019s-.512 2.522-.918 5.605m-22.912-.205c.004.88.086 1.193.182.695.096-.497.092-1.217-.008-1.6-.1-.382-.179.025-.174.905m338.579 2.8c.119 1.98.285 3.675.368 3.767.264.289.096-3.282-.252-5.367-.245-1.473-.276-1.052-.116 1.6M29.376 262.4c0 6.27.056 8.835.123 5.7.068-3.135.068-8.265 0-11.4-.067-3.135-.123-.57-.123 5.7m22.678-6.9c-.04 1.269.098 1.7.546 1.7.677 0 .781-.453.234-1.02-.202-.209-.447-.83-.546-1.38-.115-.641-.199-.389-.234.7m.346 7.3c0 2.667.158 4.4.4 4.4.242 0 .4-1.733.4-4.4 0-2.667-.158-4.4-.4-4.4-.242 0-.4 1.733-.4 4.4m-.336 7.7c.056 1.474.086 1.527.225.4.089-.715.33-1.3.536-1.3.206 0 .375-.18.375-.4 0-.22-.27-.4-.6-.4-.449 0-.584.427-.536 1.7m316.568 7.332c-.155 1.899-.197 3.536-.095 3.639.103.102.316-1.365.474-3.26.157-1.896.2-3.534.094-3.64-.106-.106-.319 1.361-.473 3.261M52.514 277.4c.003 1.1.081 1.503.173.895.092-.609.09-1.509-.005-2-.095-.492-.171.005-.168 1.105m-22.413 3.2c.004.88.086 1.193.182.695.096-.497.092-1.217-.008-1.6-.1-.382-.179.025-.174.905m22.986 1.2c.121 1.32.369 3.21.552 4.2.308 1.664.319 1.626.142-.511-.138-1.677-.047-2.366.333-2.511.29-.111.544-.868.568-1.69.025-.818-.042-1.173-.148-.788-.275.998-1.243.866-1.472-.2-.106-.495-.095.18.025 1.5m-22.594 1.8c0 .77.082 1.085.183.7.1-.385.1-1.015 0-1.4-.101-.385-.183-.07-.183.7m337.208 3.4c.004.88.086 1.193.182.695.096-.497.092-1.217-.008-1.6-.1-.382-.179.025-.174.905m-336.822 1c-.003 1.122 1.009 5.338 1.056 4.4.017-.33-.214-1.68-.511-3-.298-1.32-.543-1.95-.545-1.4m23.386 2c.419 2.864.952 4.113.682 1.6-.13-1.21-.396-2.47-.591-2.8-.219-.37-.253.09-.091 1.2m312.984-.6a17.47 17.47 0 01-.266 1.8l-.206 1 .429-.981c.236-.54.355-1.35.266-1.8-.159-.798-.165-.798-.223-.019m-311.988 5.8c0 .33.242 1.23.539 2 .297.77.539 1.13.539.8 0-.33-.242-1.23-.539-2-.297-.77-.539-1.13-.539-.8m310.37 2.431c-.284 1.109-.441 2.092-.348 2.186.093.093.402-.739.686-1.848.284-1.109.441-2.092.348-2.186-.093-.093-.402.739-.686 1.848M32.456 296.8c0 .33.155.96.344 1.4.217.504.344.578.344.2 0-.33-.155-.96-.344-1.4-.217-.504-.344-.578-.344-.2m24.012 3c-.006.44.143 1.16.332 1.6.438 1.019.438-.032 0-1.4-.257-.804-.323-.843-.332-.2m307.968 3.036c-.27.903-.418 1.716-.328 1.806.09.09.385-.576.656-1.478.27-.903.418-1.716.328-1.806-.09-.09-.385.576-.656 1.478M33.661 302c0 .33.242 1.23.539 2 .297.77.539 1.13.539.8 0-.33-.242-1.23-.539-2-.297-.77-.539-1.13-.539-.8m23.551.8c0 .33.175.87.388 1.2.345.533.388.533.388 0 0-.33-.175-.87-.388-1.2-.345-.533-.388-.533-.388 0m-22.364 4c-.006.33.235 1.14.538 1.8.707 1.545.717.826.014-1-.297-.77-.545-1.13-.552-.8m24.369 2.856c-.009.141.339 1.041.774 2 .435.959.788 1.474.783 1.144-.007-.587-1.524-3.649-1.557-3.144m302.474 3.244c-.681 1.884-.587 2.394.135.73.327-.753.54-1.531.475-1.728-.066-.197-.341.252-.61.998m-300.877.754c-.008.14.249.86.57 1.6.322.74.585 1.076.586.746.002-.576-1.127-2.866-1.156-2.346m299.901 2.156a39.61 39.61 0 01-.495 1.59c-.149.44.022.294.38-.324s.581-1.334.495-1.59c-.085-.256-.256-.11-.38.324M37.63 316c-.002.576 1.127 2.866 1.156 2.346.008-.14-.249-.86-.57-1.6-.322-.74-.585-1.076-.586-.746m321.47 4.511c-.962 2.333-.868 2.899.12.721.441-.972.752-1.914.691-2.093-.061-.179-.426.439-.811 1.372m-2.828 7.308c-.94 1.97-.808 2.305.175.443.446-.846.74-1.608.654-1.695-.087-.086-.46.477-.829 1.252m-1.407 3.198c-.67 1.471-.542 1.785.182.448.339-.625.541-1.211.449-1.302-.091-.092-.375.293-.631.854M71.2 336.111c0 .121.63 1.176 1.4 2.345 1.397 2.121 2.012 2.49.717.43-.941-1.499-2.117-3.039-2.117-2.775m3.3 5.32c.385.458.7 1.032.7 1.277 0 .245.163.546.363.669.723.447-.065-1.344-.903-2.051-.852-.72-.854-.719-.16.105m3.145 4.869c1.767 2.433 2.721 3.548 2.14 2.5-.584-1.052-3.402-4.8-3.61-4.8-.11 0 .551 1.035 1.47 2.3m268.263 2.157c-1.041 1.749-1.738 3.085-1.55 2.969.444-.275 3.757-5.846 3.578-6.018-.075-.073-.987 1.299-2.028 3.049M82.665 353.2c1.025 1.32 1.931 2.4 2.013 2.4.082 0-.612-1.08-1.543-2.4-.931-1.32-1.837-2.4-2.013-2.4-.177 0 .518 1.08 1.543 2.4m-27.678-.425c.334.646.789 1.286 1.011 1.424.222.137.025-.392-.437-1.175-1.013-1.717-1.426-1.896-.574-.249m2.562 3.825c.216.44.685 1.16 1.044 1.6l.651.8-.393-.8c-.216-.44-.685-1.16-1.044-1.6l-.651-.8.393.8m28.088 0c1.895 2.826 12.039 13.648 14.163 15.11.66.454-.51-.801-2.6-2.789s-5.178-5.213-6.862-7.168c-4.035-4.681-5.355-6.128-4.701-5.153m253.738 2.068c-.616.808-.916 1.343-.666 1.188.512-.316 2.244-2.656 1.966-2.656-.099 0-.684.661-1.3 1.468m-4 5.6c-.616.808-.916 1.343-.666 1.188.512-.316 2.244-2.656 1.966-2.656-.099 0-.684.661-1.3 1.468m-271.831.832c.438.605 1.365 1.73 2.059 2.5.694.77.411.275-.63-1.1-1.846-2.441-3.014-3.584-1.429-1.4m269.256 2.5c-.697.88-1.177 1.6-1.067 1.6.11 0 .77-.72 1.467-1.6.697-.88 1.177-1.6 1.067-1.6-.11 0-.77.72-1.467 1.6m-264.45 3.541c.894 1.067 1.942 2.192 2.33 2.5.388.307-.264-.566-1.448-1.941-1.183-1.375-2.232-2.5-2.329-2.5-.098 0 .554.873 1.447 1.941M326.8 374.8c-1.365 1.54-2.392 2.8-2.282 2.8.11 0 1.317-1.26 2.682-2.8 1.365-1.54 2.392-2.8 2.282-2.8-.11 0-1.317 1.26-2.682 2.8m-225.176-1.487c1.582 1.235 4.616 3.792 5.695 4.799a24.491 24.491 0 002.436 1.956c.685.464.324.016-.802-.997-1.299-1.168-2.136-2.284-2.29-3.056-.222-1.11-1.063-1.755-1.063-.815 0 .715-.692.427-2.4-1-.922-.77-1.794-1.394-1.938-1.387-.144.007.019.232.362.5M73.498 377c1.345 1.54 4.298 4.6 6.562 6.8 3.297 3.203 3.009 2.844-1.446-1.8-7.424-7.739-7.984-8.286-5.116-5m246.094 5.7l-3.792 3.9 3.9-3.792c3.622-3.522 4.082-4.008 3.792-4.008-.059 0-1.814 1.755-3.9 3.9M111.2 380.933c0 .11.72.77 1.6 1.467.88.697 1.6 1.177 1.6 1.067 0-.11-.72-.77-1.6-1.467-.88-.697-1.6-1.177-1.6-1.067m5.2 2.494c0 .463-.235.557-.9.359-.885-.264-.887-.259-.1.36.44.346 1.115.634 1.5.641.385.007.7.244.7.527 0 .581 2.016 1.886 2.913 1.886.324 0 .886.405 1.249.9l.66.9-.264-1c-.145-.55-.42-1.06-.611-1.133-.191-.074-.347-.369-.347-.658 0-.288-.295-.637-.657-.775-.553-.213-.575-.155-.143.367.283.34.388.744.234.898-.432.433-2.411-.838-2.567-1.649-.201-1.043-1.667-2.471-1.667-1.623m196.778 5.273l-1.378 1.5 1.5-1.378c1.396-1.284 1.684-1.622 1.378-1.622-.066 0-.741.675-1.5 1.5M86.76 389.923c1.232 1.168 2.96 2.683 3.84 3.367 2.257 1.755.565.131-3.04-2.919-2.595-2.195-2.712-2.261-.8-.448m37.24-.328c2.227 1.731 4.598 1.996 3.589.402-.32-.507-.378-.491-.383.103-.003.385-.105.7-.226.7-.557 0-2.58-1.263-2.58-1.61 0-.215-.315-.386-.7-.381-.567.007-.51.157.3.786m4.281 1.458c-.139.139-.073.589.147 1 .453.846 1.972 1.021 1.972.227 0-1.038-1.462-1.885-2.119-1.227m2.902 1.914c.336.908 1.649 1.137 1.917.333.092-.275-.039-.5-.29-.5-.252 0-.346.18-.21.4.136.22-.046.4-.403.4-.449 0-.579-.227-.418-.733.151-.477.033-.734-.336-.734-.407 0-.481.236-.26.834m176.592.333l-1.175 1.3 1.3-1.175c.715-.646 1.3-1.231 1.3-1.3 0-.309-.33-.037-1.425 1.175m-174.175.82c0 .669.811 1.48 1.48 1.48.286 0 .52-.18.52-.4 0-.22-.27-.4-.6-.4-.33 0-.6-.199-.6-.443 0-.243.279-.335.621-.204.356.136.516.069.376-.158-.359-.581-1.797-.481-1.797.125m2.8 1.231c0 .738 1.06 1.582 1.582 1.26.68-.42.476-1.008-.251-.729-.508.195-.608.095-.413-.413.168-.438.054-.669-.331-.669-.323 0-.587.248-.587.551m2.963 1.201c-.315.822.448 1.495 1.318 1.162.584-.225.544-1.019-.046-.91-.19.035-.491-.171-.669-.459-.248-.401-.388-.354-.603.207m161.837 1.897c-1.394 1.222-1.395 1.223-.112.37.708-.471 1.394-1.028 1.524-1.238.385-.624.065-.427-1.412.868m-158.525-.301c-.125.326.036.812.358 1.08.794.659.932.363.352-.751-.374-.716-.533-.79-.71-.329M98 398.925c0 .099.661.684 1.468 1.3.808.616 1.343.916 1.188.666-.316-.512-2.656-2.244-2.656-1.966m46.813.175c.049 1.189 3.187 1.954 3.187.777 0-.292-.159-.278-.48.043-.705.705-1.12.587-1.12-.32 0-.533-.267-.8-.8-.8-.44 0-.794.135-.787.3m5.054 1.167c-.147.146-.267.584-.267.973 0 .858 1.505 1.415 2.132.788.335-.335.196-.422-.541-.339-.801.09-.985-.061-.959-.789.035-.992.02-1.018-.365-.633m145.547 2.179c-2.101 1.58-2.298 1.841-.687.916 1.135-.652 2.92-2.217 2.435-2.135-.089.015-.876.564-1.748 1.219M153.631 402c-.046 1.461 1.929 2.258 2.206.89.057-.28.012-.325-.1-.1-.358.722-1.351.439-1.725-.49-.202-.503-.37-.635-.381-.3m-49.856 1.159c.122.198.864.739 1.648 1.201.784.463 1.325.679 1.202.481-.122-.198-.864-.739-1.648-1.201-.784-.463-1.325-.679-1.202-.481m54.092.212c-.383.996.859 1.674 1.639.895.423-.424.489-.666.18-.666-.267 0-.486.18-.486.4 0 .22-.201.4-.447.4-.249 0-.354-.353-.237-.8.237-.908-.314-1.103-.649-.229m5.052 1.388c.105 1.242 1.261 2.021 1.961 1.321.404-.404.313-.481-.46-.391-.727.084-1.038-.133-1.272-.889l-.309-1 .08.959m-55.518.843c.268.434 2.599 1.732 2.599 1.448 0-.094-.641-.549-1.424-1.011-.783-.462-1.312-.659-1.175-.437m60.999.534c0 .294.458.744 1.019 1 1.262.575 1.836.588.859.02-.571-.332-.623-.54-.251-.988.386-.466.283-.568-.578-.568-.61 0-1.049.224-1.049.536m8 1.488c0 .967 1.214 1.333 1.957.591.411-.412.454-.615.129-.615-.267 0-.486.18-.486.4 0 .22-.201.4-.447.4-.245 0-.36-.33-.255-.733.117-.447-.021-.734-.353-.734-.3 0-.545.311-.545.691m110.4.394c-.99.642-1.661 1.17-1.492 1.174.395.01 3.492-1.939 3.492-2.197 0-.273.002-.274-2 1.023m-97.011.8c-.318.514.517 1.582 1.236 1.582.29 0 .658-.211.817-.468.188-.305.079-.387-.313-.237-.944.362-1.895-.386-1.129-.889.362-.238.411-.396.124-.4-.262-.003-.593.182-.735.412m93.611 1.209c-.66.423-.995.77-.744.771.25.001.88-.352 1.4-.785 1.189-.99.903-.984-.656.014m-166.69 1.174c1.698 1.036 2.254 1.035.69-.001-.66-.437-1.38-.795-1.6-.796-.22 0 .189.358.91.797M130.4 418c.77.422 1.58.766 1.8.766.22 0-.23-.344-1-.766-.77-.422-1.58-.766-1.8-.766-.22 0 .23.344 1 .766m135.2.814c-1.43.635-2.397 1.162-2.15 1.171.575.019 4.95-1.907 4.95-2.18 0-.257.249-.347-2.8 1.009m-132 .586c.55.314 1.18.572 1.4.572.22 0-.05-.258-.6-.572-.55-.314-1.18-.572-1.4-.572-.22 0 .05.258.6.572m127.6 1.2c-.55.314-.82.572-.6.572.22 0 .85-.258 1.4-.572.55-.314.82-.572.6-.572-.22 0-.85.258-1.4.572m-120.4 1.6c.55.314 1.27.571 1.6.57.33-.001-.006-.264-.746-.586-1.703-.739-2.16-.731-.854.016m109 2.414c-1.615.74-.649.741 1.054.002.74-.322 1.076-.577.746-.568-.33.009-1.14.264-1.8.566M239 427.6c-.504.217-.578.344-.2.344.33 0 .96-.155 1.4-.344.504-.217.578-.344.2-.344-.33 0-.96.155-1.4.344m-75.2 1.2c.44.189 1.07.344 1.4.344.378 0 .304-.127-.2-.344-.44-.189-1.07-.344-1.4-.344-.378 0-.304.127.2.344m69.8 0c-.804.257-.843.323-.2.332.44.006 1.16-.143 1.6-.332 1.019-.438-.032-.438-1.4 0M170 430c.55.176 1.45.317 2 .313.898-.007.878-.039-.2-.313-1.692-.431-3.144-.431-1.8 0m3.7.676c.385.1 1.015.1 1.4 0 .385-.101.07-.183-.7-.183s-1.085.082-.7.183m50 0c.385.1 1.015.1 1.4 0 .385-.101.07-.183-.7-.183s-1.085.082-.7.183m-41.9.924c2.065.341 6.061.515 5.767.251-.092-.082-1.877-.247-3.967-.366-2.71-.154-3.226-.121-1.8.115m34.5-.118a5.661 5.661 0 001.8 0c.495-.095.09-.173-.9-.173s-1.395.078-.9.173m-4.2.405a8.899 8.899 0 002.2 0c.605-.092.11-.167-1.1-.167-1.21 0-1.705.075-1.1.167" fill="#db93a6"/><path id="path3" d="M187.6 92.64c-.77.086-4.01.436-7.2.778-15.401 1.651-34.579 6.584-46.8 12.037-.77.344-1.94.864-2.6 1.157-6.078 2.694-16.55 8.134-19.72 10.243-.946.63-1.791 1.145-1.877 1.145-.185 0-6.65 4.355-9.803 6.604-13.506 9.632-26.739 22.695-36.665 36.196-8.319 11.315-14.889 22.711-19.714 34.2-.924 2.2-1.937 4.51-2.251 5.132-.313.623-.57 1.316-.57 1.54 0 .224-.26.974-.578 1.668-1.118 2.439-3.764 11.044-5.616 18.26-1.572 6.131-2.834 13.352-4.018 23-.767 6.25-.67 30.746.146 37 1.357 10.403 2.632 16.83 5.277 26.6 7.131 26.342 22.02 52.151 41.967 72.746 9.528 9.838 25.603 22.462 35.494 27.873.84.46 2.338 1.294 3.328 1.853 3.571 2.017 11.882 6.078 15.8 7.72 2.2.923 4.54 1.914 5.2 2.204 39.129 17.164 94.151 14.919 136.4-5.566 20.323-9.853 39.129-24.159 53.151-40.43 6.057-7.029 7.769-9.246 13.905-18 4.292-6.124 11.198-18.88 14.725-27.2.933-2.2 1.854-4.36 2.047-4.8.447-1.021 1.226-3.256 3.137-9 2.407-7.234 3.235-9.965 3.235-10.673 0-.361.258-1.573.574-2.692 5.716-20.28 6.213-51.313 1.199-75.035-1.543-7.301-5.055-19.519-6.9-24-.226-.55-1.076-2.71-1.888-4.8-1.894-4.873-7.958-17.203-10.624-21.6a317.834 317.834 0 01-2.516-4.2c-3.158-5.556-10.333-15.184-16.834-22.59-2.643-3.01-13.013-13.286-16.182-16.034-5.293-4.589-5.774-4.98-9.821-7.978-10.795-8-23.393-15.233-34.808-19.986-2.2-.917-4.54-1.903-5.2-2.192-3.367-1.474-15.572-5.303-21-6.587-14.901-3.525-23.101-4.506-38.8-4.643-6.71-.059-12.83-.036-13.6.05m25.2.699c.77.12 3.286.4 5.592.621 5.324.51 15.597 2.29 19.808 3.432 1.1.298 2.63.662 3.4.809 1.748.334 8.422 2.321 12.4 3.692 1.65.569 3.72 1.28 4.6 1.581.88.301 1.96.713 2.4.916.44.203 3.14 1.359 6 2.57 24.343 10.305 46.914 27.481 64.445 49.04 8.587 10.561 18.703 27.192 23.156 38.073.569 1.39 1.195 2.887 1.391 3.327 1.191 2.674 2.01 4.761 2.022 5.151.007.247.361 1.169.786 2.049.425.88.779 1.909.786 2.286.008.378.27 1.278.583 2 .313.723.966 2.664 1.451 4.314.484 1.65 1.128 3.771 1.43 4.714.303.943.55 2.007.55 2.365 0 .358.255 1.567.567 2.686 1.507 5.408 2.935 13.739 3.916 22.835.681 6.322.685 27.421.006 33-1.526 12.532-2.455 17.443-5.653 29.882-9.427 36.677-34.388 70.626-70.119 95.367-9.758 6.756-28.093 15.465-41.117 19.53-2.31.721-5.27 1.65-6.578 2.066-1.307.415-2.804.755-3.326.755-.522 0-1.273.174-1.67.386-.397.213-1.691.557-2.874.765-1.184.207-3.502.649-5.152.981-12.019 2.417-21.349 3.206-35.04 2.96-10.267-.184-13.762-.439-20.96-1.531-1.43-.216-3.77-.567-5.2-.779-8.644-1.279-25.21-5.841-32.6-8.976-.66-.281-3-1.269-5.2-2.198-22.493-9.492-43.591-24.724-60.402-43.608-2-2.246-4.942-5.787-5.998-7.219-.44-.597-1.81-2.421-3.045-4.055-3.46-4.577-7.165-10.124-9.704-14.526-1.268-2.2-2.468-4.27-2.665-4.6-.393-.657-6.226-12.509-6.792-13.8-13.758-31.385-17.569-67.385-10.755-101.6 1.185-5.951 4.01-16.559 5.592-21 2.338-6.559 2.075-5.882 4.581-11.8 1.777-4.197 5.966-12.819 7.676-15.8.442-.77 1.214-2.12 1.716-3 .953-1.67 1.249-2.141 4.99-7.959 17.635-27.428 46.694-51.365 77.006-63.434 1.21-.481 2.559-1.069 2.997-1.305.438-.237 1.338-.57 2-.741.662-.171 2.463-.787 4.003-1.368 1.54-.581 3.34-1.204 4-1.384.66-.18 2.73-.777 4.6-1.326 1.87-.549 4.03-1.125 4.8-1.28.77-.155 2.21-.513 3.2-.796 1.995-.569 4.363-1.041 11.2-2.233 4.067-.708 6.927-1.047 15.175-1.794 1.196-.108 2.276-.299 2.4-.424.272-.274 21.642.072 23.625.383m-25 22.241c-4.917.279-6.083.598-5.361 1.467.573.69 10.176.824 9.75.135-.356-.576.554-1.582 1.431-1.582.397 0 .806.274.91.608.132.427.17.397.126-.1-.074-.837-.636-.88-6.856-.528m17.698.52c-.361 1.073 1.099 1.475 5.402 1.487 4.315.013 4.846-.184 3.671-1.358-.817-.817-8.803-.931-9.073-.129m-29.098.664c-2.72.388-4.115 1.934-1.9 2.106 2.589.2 3.465.135 3.098-.232-.25-.25-.154-.644.269-1.113.762-.841 1.589-.942 1.845-.225.098.275.333.355.522.178.408-.383-.581-1.086-1.434-1.018-.33.026-1.41.163-2.4.304m44.302.536c-.384 1.044.189 1.5 1.889 1.5 2.177 0 2.731-.94.925-1.569-1.63-.568-2.589-.545-2.814.069m-51.902.832c-2.374.617-2.605 2.001-.366 2.188 1.272.107 1.43.017 1.4-.8-.03-.822.13-.91 1.509-.827 1.324.08 1.473.009 1.051-.5-.572-.69-1.137-.699-3.594-.061m59.789.686c-.363.588.561 1.582 1.473 1.582.953 0 1.447-1.159.696-1.634-.76-.482-1.855-.456-2.169.052M161 120.008c-1.32.429-2.732.783-3.137.786-.406.003-.821.325-.923.714-.147.563-.512.678-1.768.558-1.003-.096-1.942.084-2.563.491-.54.354-1.324.643-1.744.643-.42 0-1.641.372-2.714.826a226.254 226.254 0 01-5.751 2.371c-6.227 2.49-13.33 6.148-21.4 11.018-1.76 1.063-3.65 2.262-4.2 2.666-11.848 8.69-14.486 10.893-21.927 18.302-14.319 14.26-26.031 31.73-32.861 49.017-.174.44-.605 1.52-.958 2.4-1.665 4.154-3.625 10.348-5.189 16.4-1.788 6.92-1.921 7.517-2.495 11.2-.309 1.98-.724 4.59-.924 5.8-3.138 19.043-.564 46.3 6.251 66.2.527 1.54 1.132 3.376 1.344 4.08.212.704.648 1.784.97 2.4.321.616.585 1.341.587 1.611.002.553 1.857 4.659 4.926 10.909 12.591 25.638 33.528 48.071 58.276 62.443 1.65.958 3.06 1.88 3.133 2.049.074.17.343.308.599.308.256 0 2.986 1.241 6.067 2.757 7.703 3.793 9.153 4.443 9.904 4.443.357 0 .761.18.897.4.136.22.532.4.88.4s1.372.342 2.276.76c4.527 2.095 11.093 3.732 11.61 2.896.357-.578-.258-.877-.829-.404-.685.568-1.791-.246-1.47-1.081.256-.669-1.661-.827-2.067-.171-.493.797-1.78.417-2.036-.6-.263-1.048-1.278-1.326-2.044-.56-.783.783-2.223.012-2.015-1.079.207-1.08-.715-1.305-2.165-.529-.623.334-.965.288-1.505-.2-.384-.348-1.143-.632-1.686-.632-1.148 0-1.971-.678-1.695-1.396.234-.611-1.124-1.02-1.915-.578-.789.442-1.71-.203-1.41-.986.284-.74-.537-.872-1.214-.195-.581.581-1.257.137-1.803-1.184-.35-.849-.471-.921-.604-.361-.322 1.353-2.108.481-2.108-1.029 0-.635-.103-.683-.595-.275-.811.673-1.945.184-1.705-.734.115-.442-.025-.729-.355-.729-.3 0-.545.15-.545.334 0 .183-.354.333-.786.333-.835 0-1.618-1.09-1.339-1.863.092-.255-.05-.598-.316-.762-.307-.19-.378-.13-.195.166.656 1.063-1.103.892-3.007-.292-1.106-.687-2.172-1.249-2.37-1.249-.197 0-.552-.36-.787-.8-.235-.44-.709-.8-1.052-.8-.925 0-2.948-1.294-2.948-1.886 0-.283-.276-.514-.614-.514-.964 0-7.631-4.722-10.786-7.639-.66-.61-2.91-2.536-5-4.279-8.274-6.901-20.259-20.894-26.287-30.691-3.827-6.221-4.402-7.242-7.309-12.991-2.988-5.907-3.994-8.139-5.771-12.8-.797-2.09-1.716-4.391-2.041-5.114-.326-.722-.592-1.516-.592-1.763 0-.248-.604-2.447-1.343-4.887-3.898-12.874-7.271-35.836-5.264-35.836.34 0 .607-.351.607-.8 0-.44-.18-.8-.4-.8-.242 0-.4-1.733-.4-4.4 0-2.667.158-4.4.4-4.4.22 0 .4-.27.4-.6 0-.33-.273-.6-.607-.6-1.499 0 .658-18.037 3.562-29.8 5.133-20.784 15.595-41.614 28.817-57.37 1.555-1.853 3.278-3.915 3.828-4.582 2.64-3.202 12.541-12.719 16.192-15.566.224-.175 1.189-1.01 2.144-1.856.954-.846 2.349-1.869 3.1-2.273.75-.404 1.364-.876 1.364-1.049 0-.533 4.311-3.104 5.204-3.104.536 0 .739.169.558.462-.164.264-.111.354.123.209.224-.138.321-.704.216-1.256-.139-.726.015-1.083.553-1.287.41-.155 1.546-.788 2.524-1.405.978-.618 2.091-1.123 2.473-1.123.382 0 .809-.36.949-.8.14-.44.557-.803.927-.807.37-.004 1.45-.534 2.399-1.178 1.66-1.124 2.84-1.235 2.904-.272.017.251.257-.173.534-.943.541-1.505 2.236-2.266 2.236-1.004 0 .358.183.538.407.4a.47.47 0 00.165-.641c-.309-.5.557-1.555 1.277-1.555.303 0 .551.264.551.587 0 .338.237.497.556.375.305-.118.471-.537.368-.933-.212-.807.679-1.321 1.457-.841.651.402 2.083.04 1.78-.451-.363-.588.648-1.537 1.639-1.537.496 0 1.126-.27 1.4-.6.556-.67 2.4-.823 2.4-.2 0 .22.585.379 1.3.354.715-.026.985-.129.6-.23-1.468-.383-.445-2.124 1.249-2.124.543 0 1.321-.302 1.729-.671.568-.514.851-.56 1.211-.2.81.81 2.67.601 2.441-.274-.21-.805.826-1.453 1.579-.988.24.149 1.439.312 2.664.364 1.225.051 1.822.008 1.327-.097-1.078-.227-1.157-.851-.2-1.577.829-.63 2.1-.725 2.1-.157 0 .22.45.4 1 .4.588 0 1-.23 1-.557 0-.861 1.128-1.091 1.6-.326.358.58.405.532.311-.317-.144-1.298-1.056-1.385-4.111-.392m74.378.427c-.376.609.441 1.32 1.188 1.033a.639.639 0 00.384-.853c-.273-.711-1.179-.815-1.572-.18m4.622 1.172c-.533.349-.533.437 0 .787.924.606 1.673.479 1.529-.261-.162-.835-.75-1.037-1.529-.526m4.823 1.179c-.677.418-.258 1.614.564 1.614.34 0 .613-.346.613-.776 0-.953-.461-1.281-1.177-.838m3.777 1.614c-.327.53.112 1.2.786 1.2.342 0 .463-.292.33-.8-.226-.864-.72-1.041-1.116-.4m3 1.37c0 .299.27.648.6.775.352.135.6.005.6-.315 0-.299-.27-.648-.6-.775-.352-.135-.6-.005-.6.315M255.8 398c-.326.528.152 1.277.628.983.485-.3.482-1.383-.004-1.383-.207 0-.488.18-.624.4m-6.8 2.8c-.16.258-.11.65.11.87.266.266.496.243.69-.07.16-.258.11-.65-.11-.87-.266-.266-.496-.243-.69.07m-4 1.2c-.326.528.152 1.277.628.983.485-.3.482-1.383-.004-1.383-.207 0-.488.18-.624.4m-3.933 1.067c-.488.487-.276 1.333.333 1.333.333 0 .6-.356.6-.8 0-.797-.426-1.04-.933-.533m-79.884 1.553c-1.032 1.244 2.858 2.847 4.405 1.816.893-.595.208-.965-.717-.388-.971.607-2.071-.081-2.071-1.297 0-.91-.909-.984-1.617-.131m74.2.199c-.634.701-.637.785-.037 1.015.876.337 1.854-.074 1.854-.779 0-.923-1.069-1.063-1.817-.236m-68.983 1.557c0 1.732 11.78 3.666 12.329 2.024.166-.496.095-.512-.413-.093-.797.657-1.916.22-1.916-.75 0-.659-.312-.757-2.4-.757-1.333 0-2.4.178-2.4.4 0 .22-.262.4-.581.4-1.002 0-2.619-.904-2.619-1.464 0-.305-.431-.536-1-.536-.723 0-1 .215-1 .776m62.678-.332c-.571.332-.623.54-.251.988.911 1.099 3.173.448 3.173-.912 0-.626-1.892-.675-2.922-.076m-7.431 1.3c-.89 1.072.442 1.85 2.342 1.368 1.235-.314 2.256-1.352 1.511-1.537-1.547-.385-3.464-.301-3.853.169m-38.747.924c-.715.1-1.3.398-1.3.661 0 .973 1.545 1.38 5.62 1.48 5.212.129 5.18.133 5.18-.685 0-.589-.075-.577-.577.1-.671.904-2.065.353-1.967-.779.035-.409-.259-.646-.8-.648-.471-.002-1.756-.073-2.856-.158-1.1-.085-2.585-.072-3.3.029m28.1.103c-1.884.154-2.787.392-2.76.729.022.275.067.702.1.948.062.466 6.863.244 7.664-.25 1.078-.667-.009-1.889-1.537-1.727-.367.038-1.927.173-3.467.3" fill="#d77c94"/><path id="path4" d="M182 92.401c-1.21.174-4.09.522-6.4.773-2.31.251-5.088.72-6.173 1.041-1.085.322-2.558.585-3.274.585-.715 0-1.781.183-2.368.406-1.016.386-4.035 1.122-8.376 2.042-1.095.232-2.308.591-2.694.798-.387.207-1.471.539-2.409.739-1.587.338-4.643 1.277-6.506 1.998-.44.171-1.88.711-3.2 1.2-2.655.985-5.967 2.274-7.2 2.802-3.429 1.469-5.414 2.393-9.6 4.47-2.64 1.311-5.88 2.994-7.2 3.74-1.32.747-3.114 1.753-3.988 2.235-.873.481-2.043 1.186-2.6 1.565-.556.379-3.082 2.058-5.612 3.732-4.725 3.124-9.645 6.585-10 7.032-.11.139-1.19 1.057-2.4 2.04C71.074 146.605 52.887 170.242 43.217 193c-.468 1.1-1.113 2.478-1.433 3.062-.321.584-.584 1.269-.584 1.522 0 .253-.328 1.215-.729 2.138-1.437 3.306-2.734 6.882-3.366 9.278-.232.88-.555 1.78-.717 2-.163.22-.42 1.03-.572 1.8-.153.77-.511 2.12-.798 3-1.023 3.145-2.454 9.106-3.072 12.8-.22 1.32-.571 2.959-.778 3.642-.208.682-.542 2.932-.744 5-.202 2.067-.605 4.748-.895 5.958-.838 3.484-.662 36.206.21 39.2l.641 2.2-.2-2c-2.168-21.731-.701-44.893 3.868-61.062.414-1.464.752-2.97.752-3.346 0-.714.185-1.325 2.786-9.192 1.477-4.47 2.52-7.377 3.516-9.8.226-.55.731-1.81 1.123-2.8 1.858-4.69 9.148-18.94 11.419-22.32.636-.946 1.156-1.812 1.156-1.924 0-.331 5.912-8.892 8.533-12.356 13.5-17.844 29.934-32.572 48.867-43.795 5.8-3.438 14.165-7.698 19.6-9.98 2.2-.924 4.54-1.919 5.2-2.21 2.866-1.266 10.598-3.852 16-5.351 1.54-.428 3.806-1.067 5.035-1.421 1.229-.353 2.564-.643 2.965-.643.401 0 1.646-.255 2.765-.566 2.648-.736 8.4-1.766 12.435-2.227a225.5 225.5 0 006-.778c3.499-.516 30.213-.536 34-.025 1.54.207 4.42.564 6.4.792 10.328 1.19 25.724 5.119 37.2 9.495 28.023 10.684 51.089 27.328 71.611 51.672 8.285 9.828 18.147 25.81 23.594 38.237 1.365 3.114 2.083 4.821 2.779 6.6.387.99.883 2.25 1.102 2.8.361.905 2.283 6.689 4.33 13.028.431 1.336.784 2.724.784 3.086 0 .362.246 1.429.547 2.372 1.687 5.286 4.293 21.495 4.81 29.914.074 1.21.085-.05.024-2.8-.061-2.75-.299-5.99-.529-7.2-.23-1.21-.604-3.55-.831-5.2-.548-3.975-1.377-8.241-2.409-12.4-.463-1.87-1.03-4.3-1.258-5.4-.229-1.1-.582-2.171-.785-2.38-.203-.209-.369-.681-.369-1.049 0-.811-1.843-6.694-2.401-7.666-.219-.382-.399-.984-.399-1.339s-.255-1.212-.567-1.906c-1.281-2.846-2.233-5.18-2.233-5.475 0-.728-6.427-14.07-9.241-19.185-3.67-6.67-10.587-16.852-15.895-23.4-14.284-17.617-30.26-31.134-49.803-42.135-5.796-3.263-18.467-9.265-19.559-9.265-.298 0-.713-.167-.922-.372-.395-.387-1.206-.693-8.18-3.085-5.394-1.85-8.227-2.657-15.2-4.331-6.968-1.673-9.219-2.109-13.6-2.635-1.87-.224-4.3-.614-5.4-.865-2.359-.54-34.383-.803-37.8-.311m11.067 23.466c-.419.419-.312 1.333.157 1.333.233 0 .293-.211.134-.468-.193-.312-.074-.385.356-.22.453.174.579.075.423-.332-.239-.624-.642-.741-1.07-.313m-14.567 1.625c-.275.096-.494.475-.487.841.011.605.057.608.5.032.268-.349.712-.559.987-.467.275.093.5.083.5-.022 0-.32-.97-.569-1.5-.384m-8.053 1.279c-1.013.626-.371 1.64.68 1.073.755-.408.827-.584.387-.95-.304-.252-.771-.306-1.067-.123m-10.747 2.694c-.609.246-.676 1.46-.07 1.258.237-.079.401-.298.366-.488-.035-.19.176-.498.47-.684.572-.363.061-.42-.766-.086m-5.429 1.895c-.13.338-.076.713.119.834.523.323.966-.598.508-1.056-.256-.256-.474-.179-.627.222m-4.138 1.64c0 .33.218.6.485.6.266 0 .708-.27.982-.6.42-.506.343-.6-.484-.6-.607 0-.983.23-.983.6m-3.066.467c-.407.406-.318.933.157.933.233 0 .32-.168.193-.373s.267-.448.876-.54c1.105-.167 1.105-.167.074-.227-.569-.033-1.154.06-1.3.207m-3.459 1.524c-.266.32-.42.772-.343 1.005.078.232.448.065.822-.373.375-.437.529-.89.343-1.005-.187-.115-.557.053-.822.373m-2.708.874c-.593.239-.679 1.735-.1 1.735.22 0 .4-.27.4-.6 0-.33.27-.6.6-.6.33 0 .6-.18.6-.4 0-.419-.651-.478-1.5-.135m-6.5 3.735c0 .516.203.799.5.7a.788.788 0 00.5-.7.788.788 0 00-.5-.7c-.297-.099-.5.184-.5.7m-2.8 1.4c0 .33.158.6.351.6.193 0 .575-.27.849-.6.416-.501.358-.6-.351-.6-.488 0-.849.255-.849.6m-3.3 1.229c-.605.328-1.1.771-1.1.984 0 .213-.428.387-.951.387-1.233 0-2.164 1.045-1.512 1.697.351.351.463.319.463-.132 0-.327.38-.623.845-.658.464-.035 1.154-.344 1.531-.686.378-.341.988-.621 1.355-.621.402 0 .669-.319.669-.8 0-.44-.045-.793-.1-.784-.055.009-.595.285-1.2.613m-6.45 3.69c-.108.176-.043.569.146.874.363.588 1.604-.063 1.604-.842 0-.439-1.482-.466-1.75-.032m-1.336.927c-.246.246-.865.655-1.377.91-.951.475-1.53 1.844-.779 1.844.229 0 .322-.247.206-.55-.147-.384.119-.55.881-.55.99 0 2.155-.96 2.155-1.776 0-.463-.564-.4-1.086.122m-5.914 3.99c-1.695 1.01-2.2 1.51-2.2 2.18 0 .891.677.696.929-.268.142-.542.436-.77.81-.627.629.242 2.036-1.036 1.802-1.637-.078-.199-.681-.041-1.341.352m-5.196 3.787c-2.518 1.709-3.266 2.977-1.757 2.977.22 0 .293-.173.162-.385-.248-.402 1.168-2.05 1.691-1.968 1.195.189 2.253-.09 1.7-.447-.4-.258-.433-.39-.1-.394.275-.003.5-.186.5-.406 0-.638-.581-.473-2.196.623m-4.187 3.67c-.321.126-1.039.652-1.596 1.168-.557.517-1.169.939-1.36.939-.19 0-.247.261-.124.58.146.379.03.505-.335.365-.575-.22-9.561 8.504-13.002 12.622a356.958 356.958 0 01-3.747 4.394c-1.07 1.231-2.33 2.801-2.8 3.488-.469.687-1.638 2.26-2.598 3.496-1.262 1.625-1.659 2.44-1.437 2.95.262.6.343.55.545-.335.236-1.036 2.002-3.532 3.337-4.717.385-.341.703-.806.706-1.032.01-.621 2.275-3.064 2.931-3.161.565-.083 2.972-2.65 2.484-2.65-.137 0-.049-.374.196-.831.244-.457.68-.741.968-.63.346.133.461-.042.338-.511-.344-1.317 11.144-12.922 12.531-12.658.41.078.978-.108 1.262-.414.421-.454.421-.558 0-.565-.284-.005.069-.298.784-.65.715-.353 1.3-.899 1.3-1.215 0-.331.195-.453.462-.288.286.177.353.11.176-.176-.157-.254-.32-.448-.362-.43l-.659.261M76.848 181.3c-1.002 1.879-1.542 2.72-2.248 3.5-.401.443-.596.937-.434 1.099.162.162.469-.019.684-.402.214-.383.634-.697.932-.697.343 0 .467-.29.338-.786-.113-.432.038-1.056.337-1.386 1.604-1.774 1.85-2.228 1.207-2.228-.184 0-.552.405-.816.9m-3.762 5.965c-3.768 6.091-8.807 16.67-12.068 25.335a179.713 179.713 0 01-1.436 3.719c-.21.505-.375 1.225-.366 1.6.023.973 1.517-2.157 1.833-3.837.145-.774.507-1.874.805-2.445.298-.57.542-1.174.544-1.341.001-.168.38-1.158.842-2.2.462-1.043.988-2.256 1.169-2.696.181-.44 1.063-2.393 1.96-4.339.897-1.947 1.631-3.702 1.631-3.9a.36.36 0 01.357-.361c.196 0 .473-.465.616-1.033.387-1.543 2.156-4.167 2.808-4.167.315 0 .7-.208.857-.462.177-.286.11-.353-.176-.176-.812.502-.506-.909.567-2.608.566-.896.94-1.718.832-1.826-.108-.109-.457.223-.775.737m-14.587 32.477c-.274.603-.499 1.389-.499 1.748s-.345 1.836-.767 3.282c-1.921 6.576-3.889 16.89-3.381 17.712.308.499.842.369 1.085-.264.156-.408.03-.506-.427-.33-.494.19-.585.082-.379-.453.148-.386.269-1.408.269-2.27 0-1.3.136-1.567.8-1.567.587 0 .8-.267.8-1 0-.55-.196-1-.435-1-.287 0-.345-.58-.171-1.7.404-2.6.608-3.1 1.264-3.1.434 0 .579-.368.515-1.3-.19-2.761.011-3.802.77-4.001.788-.206 1.468-2.32.702-2.179-.524.096-.347-2.101.227-2.801.217-.264.334-.794.26-1.176-.104-.54-.246-.45-.633.399M53.043 246.3c-.538 3.073-.763 9.579-.341 9.839.252.156.4-.176.377-.841-.185-5.254.143-8.411.895-8.607.559-.146.713-.437.553-1.047-.353-1.35-1.199-.976-1.484.656m316.325 15.9c0 4.4.058 6.255.13 4.121.072-2.133.072-5.733.001-8-.072-2.266-.131-.521-.131 3.879m-316.83 11.942c.316 5.548.597 7.058 1.312 7.058.303 0 .55-.165.55-.367 0-.202.109-.652.243-1 .174-.454.004-.633-.6-.633-.833 0-1.162-2.898-.964-8.5.021-.605-.15-1.1-.381-1.1-.284 0-.336 1.472-.16 4.542M369.287 274c-.132 5.129-2.065 18.76-3.517 24.8-1.866 7.766-3.121 12.322-4.462 16.2-.532 1.54-1.062 3.16-1.178 3.6-.828 3.158-5.27 13.528-8.567 20-4.974 9.764-7.167 13.385-14.065 23.221-9.638 13.743-24.806 28.92-38.498 38.523-4.582 3.214-12.578 8.433-13.8 9.008-.33.155-1.86.993-3.4 1.862-4.344 2.451-17.395 8.784-18.109 8.787-.16.001-1.551.515-3.091 1.141-2.881 1.173-11.655 4.097-15.2 5.065-6.467 1.767-11.147 2.846-14.768 3.404-1.523.234-2.9.507-3.061.607-.16.099-1.885.352-3.831.562-1.947.211-4.98.576-6.74.813-5.268.708-31.042.574-37.2-.193-17.139-2.136-29.317-5.312-46.4-12.1-38.556-15.32-74.304-50.802-90.575-89.9-.916-2.2-1.839-4.36-2.051-4.8-1.288-2.671-4.414-12.377-6.505-20.2-1.276-4.773-3.384-15.412-3.607-18.2-.104-1.308-.14-1.209-.195.543-.037 1.178.19 3.338.503 4.8.314 1.461.772 3.647 1.017 4.857 1.238 6.104 2.701 11.953 3.226 12.895.213.382.387 1.003.387 1.38 0 1.145 4.449 13.721 6.199 17.525.304.66.941 2.1 1.416 3.2 6.274 14.536 14.656 27.767 26.973 42.576 1.064 1.28 15.691 15.924 17.225 17.246 6.234 5.372 14.308 11.333 20.787 15.348 2.42 1.5 4.85 3.011 5.4 3.358 2.354 1.488 13.019 6.915 16.6 8.449 1.1.471 2.478 1.119 3.062 1.439.584.321 1.304.59 1.6.598.296.007 1.258.361 2.138.786.88.425 1.827.779 2.105.786.278.008.818.193 1.2.411.754.431 3.575 1.455 5.495 1.995.66.186 1.74.527 2.4.758 2.338.819 9.451 2.755 14.115 3.843 3.037.709 5.174 1.097 9.885 1.799 1.54.23 4.87.73 7.4 1.113 3.754.567 7.394.695 19.8.695s16.046-.128 19.8-.695c2.53-.383 5.77-.869 7.2-1.08 5.626-.833 9.511-1.632 14.6-3.005 1.1-.296 2.81-.746 3.8-.999 4.362-1.115 5.045-1.309 5.8-1.646.44-.197 2.24-.815 4-1.375 1.76-.56 3.767-1.284 4.46-1.609.694-.325 1.461-.591 1.706-.591.245 0 .757-.175 1.139-.39.382-.214 1.865-.854 3.295-1.42 2.602-1.031 4.698-1.949 6.2-2.716.44-.224 2.6-1.304 4.8-2.4 6.472-3.222 19.388-10.918 20.6-12.274.11-.123 2.029-1.52 4.263-3.104 2.235-1.584 4.305-3.112 4.6-3.395.296-.283 2.247-1.947 4.337-3.698 8.653-7.248 19.702-18.994 26.193-27.842 3.893-5.308 8.207-11.768 8.207-12.291 0-.222.152-.463.338-.537 1.202-.473 12.146-21.941 13.077-25.651.151-.599.434-1.188.629-1.309.196-.121.356-.497.356-.836 0-.339.262-1.183.582-1.877.68-1.471 1.728-4.347 2.21-6.06.186-.66.525-1.74.753-2.4 1.162-3.358 2.055-6.553 2.055-7.354 0-.494.174-1.224.387-1.621.467-.874 1.439-5.072 2.181-9.425.301-1.76.657-3.47.793-3.8.136-.33.413-2.22.616-4.2s.569-4.773.813-6.208c.244-1.434.383-4.224.309-6.2l-.134-3.592-.078 3m-315.454 9.147c-.23.371.288 4.417.902 7.053.205.88.394 1.285.419.9.025-.385.226-.7.446-.7.755 0 .432-1.898-.358-2.105-.783-.205-1.423-4.136-.742-4.557.427-.264.372-.938-.076-.938-.207 0-.473.156-.591.347m1.51 9.058c-.292.761-.102 1.813 1.232 6.795.589 2.2 1.248 4.704 1.465 5.565.216.861.56 1.851.765 2.2.611 1.046.479-.29-.23-2.326-.427-1.227-.486-1.888-.194-2.18.686-.686.549-2.465-.145-1.889-.801.665-1.112.001-1.19-2.542-.044-1.434-.296-2.335-.791-2.831-.499-.498-.678-1.146-.572-2.062.167-1.429.036-1.71-.34-.73m3.889 16.084c-.018.489.307 1.659.722 2.6C61.661 314.76 62 315.66 62 316.325c0 .383.238 1.052.529 1.486.291.434.769 1.419 1.063 2.189 1.081 2.834 6.059 12.882 6.275 12.666.123-.122-.969-2.617-2.425-5.544-1.456-2.927-2.646-5.637-2.645-6.022.002-.385-.177-.7-.397-.7-.22 0-.4-.232-.4-.515 0-.284-.358-1.219-.796-2.078-.438-.859-.908-2.157-1.045-2.885-.136-.727-.408-1.322-.604-1.322-.195 0-.355-.37-.355-.822 0-.452-.337-1.577-.748-2.5-.412-.923-.848-1.948-.969-2.278-.145-.397-.231-.299-.251.289M70 333.527c0 .206.27.599.6.873.33.274.6.676.6.893 0 .527 2.489 4.351 2.697 4.144.19-.191-3.099-5.791-3.574-6.085-.178-.109-.323-.031-.323.175m4 6.811c0 .186.36.664.8 1.062.44.398.8.952.8 1.231 0 .279.423 1.016.939 1.638.517.622 1.725 2.301 2.685 3.731.96 1.43 1.884 2.699 2.053 2.819.169.12.911 1.067 1.648 2.104 4.838 6.804 20.456 22.677 22.313 22.677.597 0 .412-.654-.468-1.656-.457-.519-.706-.674-.553-.344.152.33-.149.133-.67-.437-.521-.571-1.197-.953-1.503-.848-.335.114-.446.011-.279-.259.164-.265.064-.369-.244-.255-.544.2-12.111-11.273-13.053-12.946-.292-.52-.601-1.31-.687-1.754-.183-.951-.325-1.124-1.044-1.271-1.17-.238-1.937-.743-1.937-1.273 0-.306-.152-.557-.337-.557-.185 0-.68-.657-1.1-1.459-.42-.803-1.322-2.018-2.006-2.7-.683-.683-1.673-1.984-2.2-2.893a30.984 30.984 0 00-2.083-3.071c-.654-.826-1.141-1.945-1.162-2.673-.025-.882-.144-1.097-.404-.728-.29.412-.412.417-.572.024-.228-.561-.936-.684-.936-.162m32.8 36.15c0 .663 1.657 2.245 5.228 4.991 2.995 2.303 4.372 2.917 4.372 1.948 0-.38-.355-.632-.9-.64-1.098-.017-2.859-1.407-2.505-1.979.141-.227-.071-.534-.47-.682-.399-.147-.834-.429-.966-.626-.133-.196-.705-.408-1.271-.471-1.06-.116-2.511-1.235-1.984-1.531.163-.092.064-.109-.22-.039-.293.073-.466-.154-.4-.524.064-.359-.109-.731-.384-.827-.275-.096-.5.075-.5.38m11.272 8.399c.136.941 2.08 2.295 2.579 1.796.39-.391-.352-1.108-1.299-1.256-.445-.07-.704-.385-.634-.772.064-.36-.083-.655-.328-.655s-.388.399-.318.887m3.928 2.28c0 .98.577 1.633 1.443 1.633.526 0 .957.175.957.39 0 .347 2.023 1.61 2.58 1.61.121 0 .22-.27.22-.6 0-.579-.447-.767-1.5-.63-.275.036-.5-.213-.5-.552 0-.351-.345-.618-.8-.618-.44 0-.8-.174-.8-.387 0-.214-.301-.272-.669-.131-.508.195-.608.095-.413-.413.141-.368.083-.669-.131-.669a.378.378 0 00-.387.367m9.81 5.617c-.339.549-.039.961.552.758.242-.084.273-.366.075-.685-.25-.402-.412-.421-.627-.073m11.39 5.336c0 .576.782 1.48 1.28 1.48.176 0 .32-.264.32-.587 0-.36-.234-.498-.605-.356-.432.166-.534.049-.357-.412.136-.355.048-.645-.195-.645-.244 0-.443.234-.443.52m3.2 1.431c0 .467.169.849.376.849.693 0 .822-.704.22-1.204-.496-.411-.596-.351-.596.355m3.646 1.325c-.061.89.585 1.258 1.402.801.447-.25.512-.455.203-.645-.248-.154-.451-.089-.451.144 0 .697-.727.479-.924-.276-.165-.631-.188-.633-.23-.024m4.029 1.419c.146.755 1.525 1.238 1.525.534 0-.236-.225-.384-.5-.329-.275.055-.455-.125-.4-.4.055-.275-.093-.5-.329-.5-.236 0-.369.313-.296.695m4.537 1.022c-.171.395-.199.83-.061.967.406.406.733-.164.546-.953-.165-.698-.187-.699-.485-.014m4.588 1.436c0 .44.164.901.364 1.025.492.304 1.636-.165 1.636-.67 0-.234-.254-.195-.6.092-.49.407-.6.383-.6-.127 0-.344-.18-.737-.4-.873-.22-.136-.4.113-.4.553m6.971 2.256c.424.32.869.485.988.365.251-.251-.765-.965-1.359-.955-.22.003-.053.269.371.59m7.029.791c0 .33.18.6.4.6.22 0 .4-.27.4-.6 0-.33-.18-.6-.4-.6-.22 0-.4.27-.4.6m12.8 1.357c0 .528.996.816 1.579.456.325-.201.36-.403.098-.565-.225-.139-.5-.027-.611.25-.161.399-.209.399-.234.002-.036-.563-.832-.699-.832-.143" fill="#dcb3bf"/></g></svg>