<svg xmlns="http://www.w3.org/2000/svg" height="30.481" width="99.236" xml:space="preserve" id="svg2" version="1.1"><defs id="defs6"><clipPath id="clipPath18" clipPathUnits="userSpaceOnUse"><path id="path16" d="M0 22.86h74.427V0H0z"/></clipPath></defs><g transform="matrix(1.33333 0 0 -1.33333 0 30.48)" id="g10"><g id="g12"><g clip-path="url(#clipPath18)" id="g14"><g transform="translate(8.114 10.432)" id="g20"><path id="path22" d="M0 0c3.734 0 6.182 1.996 6.182 4.958v.065c0 3.22-2.415 4.895-6.054 4.895H-5.57V0zm-8.114 10.979c0 .709.58 1.289 1.256 1.289h7.18c5.087 0 8.436-2.705 8.436-7.148v-.063c0-4.862-4.057-7.373-8.854-7.373H-5.57v-6.826c0-.708-.58-1.288-1.288-1.288-.676-.001-1.256.579-1.256 1.287z" fill="#283645" fill-opacity="1" fill-rule="nonzero" stroke="none"/></g><g transform="translate(21.729 21.572)" id="g24"><path id="path26" d="M0 0c0 .708.579 1.288 1.254 1.288.709 0 1.288-.58 1.288-1.288v-20.283c0-.708-.579-1.288-1.288-1.288-.676 0-1.255.58-1.255 1.288V0z" fill="#283645" fill-opacity="1" fill-rule="nonzero" stroke="none"/></g><g transform="translate(30.87 21.54)" id="g28"><path id="path30" d="M0 0c0 .676.579 1.256 1.256 1.256h.354c.58 0 .934-.29 1.288-.74l13.684-17.45V.064a1.256 1.256 0 001.255 1.256c.676 0 1.223-.58 1.223-1.256v-20.348c0-.676-.482-1.191-1.159-1.191h-.129c-.546 0-.933.322-1.319.772L2.479-2.833v-17.45c0-.676-.547-1.256-1.255-1.256-.677 0-1.224.58-1.224 1.256z" fill="#283645" fill-opacity="1" fill-rule="nonzero" stroke="none"/></g><g transform="translate(56.3 21.572)" id="g32"><path id="path34" d="M0 0c0 .708.579 1.288 1.257 1.288.707 0 1.286-.58 1.286-1.288v-12.331L15.39.837c.289.258.58.451.998.451.676 0 1.224-.612 1.224-1.256 0-.354-.161-.644-.419-.901l-7.984-7.92 8.564-10.562c.225-.29.354-.546.354-.933 0-.676-.579-1.288-1.286-1.288-.484 0-.807.258-1.031.58L7.407-10.529l-4.861-4.862v-4.893c0-.708-.58-1.288-1.287-1.288-.678 0-1.257.58-1.257 1.288V0z" fill="#283645" fill-opacity="1" fill-rule="nonzero" stroke="none"/></g></g></g></g></svg>