<svg xmlns="http://www.w3.org/2000/svg" height="53.835" width="195.067" xml:space="preserve" id="svg2" version="1.1"><defs id="defs6"><clipPath id="clipPath18" clipPathUnits="userSpaceOnUse"><path id="path16" d="M0 40.376h146.3V0H0z"/></clipPath></defs><g transform="matrix(1.33333 0 0 -1.33333 0 53.835)" id="g10"><g id="g12"><g clip-path="url(#clipPath18)" id="g14"><g transform="translate(79.988 10.735)" id="g20"><path id="path22" d="M0 0c3.734 0 6.182 1.996 6.182 4.959v.062c0 3.221-2.414 4.895-6.053 4.895H-5.57V-.002H0zm-8.114 10.979c0 .709.58 1.289 1.256 1.289h7.18c5.087 0 8.436-2.705 8.436-7.147v-.063c0-4.861-4.057-7.373-8.854-7.373H-5.57v-6.826c0-.708-.58-1.287-1.289-1.287-.676 0-1.256.58-1.256 1.287v20.12z" fill="#fff" fill-opacity="1" fill-rule="nonzero" stroke="none"/></g><g transform="translate(93.603 21.876)" id="g24"><path id="path26" d="M0 0c0 .708.579 1.288 1.255 1.288.709 0 1.288-.58 1.288-1.288v-20.283a1.29 1.29 0 00-1.288-1.287C.579-21.57 0-20.991 0-20.283z" fill="#fff" fill-opacity="1" fill-rule="nonzero" stroke="none"/></g><g transform="translate(102.744 21.844)" id="g28"><path id="path30" d="M0 0c0 .676.58 1.256 1.256 1.256h.354c.58 0 .935-.29 1.288-.74l13.684-17.45V.064c0 .676.547 1.256 1.256 1.256.676 0 1.225-.58 1.225-1.256v-20.348c0-.677-.481-1.191-1.159-1.191h-.129c-.547 0-.935.322-1.318.773L2.481-2.835v-17.449c0-.677-.546-1.257-1.256-1.257-.676 0-1.223.58-1.223 1.257V0z" fill="#fff" fill-opacity="1" fill-rule="nonzero" stroke="none"/></g><g transform="translate(128.173 21.876)" id="g32"><path id="path34" d="M0 0c0 .708.58 1.288 1.257 1.288A1.29 1.29 0 002.543 0v-12.331L15.391.837c.29.257.579.451.998.451.675 0 1.224-.612 1.224-1.256 0-.354-.162-.644-.42-.901l-7.984-7.92 8.564-10.561c.225-.291.354-.546.354-.935 0-.676-.577-1.288-1.285-1.288-.483 0-.807.259-1.03.58L7.41-10.529l-4.863-4.862v-4.894a1.29 1.29 0 00-1.286-1.288c-.677 0-1.257.58-1.257 1.288V0z" fill="#fff" fill-opacity="1" fill-rule="nonzero" stroke="none"/></g><g transform="translate(51.99 10.532)" id="g36"><path id="path38" d="M0 0c-.716-4.272-4.421-7.531-8.896-7.531-4.475 0-8.181 3.259-8.896 7.531a9.035 9.035 0 00-.135 1.5c0 .512.053 1.011.135 1.5.716 4.271 4.421 7.531 8.896 7.531C-4.421 10.531-.715 7.271 0 3c.082-.489.135-.988.135-1.5S.082.488 0 0m-25.675 0c-.715-4.272-4.421-7.531-8.896-7.531-4.475 0-8.18 3.259-8.896 7.531a9.035 9.035 0 00-.135 1.5c0 .512.053 1.011.135 1.5.715 4.271 4.421 7.531 8.896 7.531 4.475 0 8.18-3.26 8.896-7.531.082-.489.135-.988.135-1.5s-.053-1.012-.135-1.5M8.472 1.828L3.297 23.193c-.361 2.348-2.593 6.651-8.599 6.651a1.5 1.5 0 110-3c4.856 0 5.575-3.729 5.639-4.143L5.104 3H3.031C2.289 8.927-2.771 13.531-8.896 13.531S-20.082 8.927-20.823 3h-1.82c-.741 5.927-5.802 10.531-11.927 10.531S-45.755 8.927-46.497 3h-2.073l4.767 19.701c.063.414.783 4.143 5.639 4.143a1.5 1.5 0 110 3c-6.006 0-8.238-4.303-8.599-6.651l-5.175-21.365c-.266-1.109.531-1.826 1.426-1.826.012 0 .023-.004.036-.004h3.982c.741-5.926 5.802-10.53 11.927-10.53S-23.382-5.928-22.64-.002h1.814c.742-5.926 5.802-10.53 11.927-10.53S2.287-5.928 3.028-.002H7.01c.012 0 .023.004.036.004.895 0 1.692.717 1.426 1.826" fill="#fff" fill-opacity="1" fill-rule="nonzero" stroke="none"/></g></g></g></g></svg>