<svg xmlns="http://www.w3.org/2000/svg" height="53.833" width="195.067" xml:space="preserve" id="svg2" version="1.1"><defs id="defs6"><clipPath id="clipPath18" clipPathUnits="userSpaceOnUse"><path id="path16" d="M0 40.375h146.3V0H0z"/></clipPath></defs><g transform="matrix(1.33333 0 0 -1.33333 0 53.833)" id="g10"><g id="g12"><g clip-path="url(#clipPath18)" id="g14"><g transform="translate(79.988 10.734)" id="g20"><path id="path22" d="M0 0c3.734 0 6.182 1.996 6.182 4.959v.062c0 3.221-2.414 4.895-6.053 4.895H-5.57V-.002H0zm-8.114 10.979c0 .709.58 1.289 1.256 1.289h7.18c5.087 0 8.436-2.705 8.436-7.147v-.063c0-4.861-4.057-7.373-8.854-7.373H-5.57v-6.826c0-.708-.58-1.287-1.289-1.287-.676 0-1.256.58-1.256 1.287v20.12z" fill="#fff" fill-opacity="1" fill-rule="nonzero" stroke="none"/></g><g transform="translate(93.603 21.875)" id="g24"><path id="path26" d="M0 0c0 .708.579 1.288 1.255 1.288.709 0 1.288-.58 1.288-1.288v-20.283a1.29 1.29 0 00-1.288-1.287C.579-21.57 0-20.991 0-20.283z" fill="#fff" fill-opacity="1" fill-rule="nonzero" stroke="none"/></g><g transform="translate(102.744 21.843)" id="g28"><path id="path30" d="M0 0c0 .676.58 1.256 1.256 1.256h.354c.58 0 .935-.29 1.288-.74l13.684-17.45V.064c0 .676.547 1.256 1.256 1.256.676 0 1.225-.58 1.225-1.256v-20.348c0-.677-.481-1.191-1.159-1.191h-.129c-.547 0-.935.322-1.318.773L2.481-2.835v-17.449c0-.677-.546-1.257-1.256-1.257-.676 0-1.223.58-1.223 1.257V0z" fill="#fff" fill-opacity="1" fill-rule="nonzero" stroke="none"/></g><g transform="translate(128.173 21.875)" id="g32"><path id="path34" d="M0 0c0 .708.58 1.288 1.257 1.288A1.29 1.29 0 002.543 0v-12.331L15.391.837c.29.257.579.451.998.451.675 0 1.224-.612 1.224-1.256 0-.354-.162-.644-.42-.901l-7.984-7.92 8.564-10.561c.225-.291.354-.546.354-.935 0-.676-.577-1.288-1.285-1.288-.483 0-.807.259-1.03.58L7.41-10.529l-4.863-4.862v-4.894a1.29 1.29 0 00-1.286-1.288c-.677 0-1.257.58-1.257 1.288V0z" fill="#fff" fill-opacity="1" fill-rule="nonzero" stroke="none"/></g><g transform="translate(98.498 30.5)" id="g36"><path id="path38" d="M0 0a3.623 3.623 0 00-3.623 3.624A3.625 3.625 0 00-7.248 0a3.625 3.625 0 003.625-3.624A3.623 3.623 0 000 0" fill="#d22856" fill-opacity="1" fill-rule="nonzero" stroke="none"/></g><g transform="translate(43.094 21.062)" id="g40"><path id="path42" d="M0 0c.246 0 .489-.014.73-.033a2.491 2.491 0 01-2.136 1.221c-.877 0-1.614.568-1.884 1.354a11.977 11.977 0 01-2.089-.816c.062-.017.122-.038.188-.038a2 2 0 002-2c0-.096-.015-.188-.028-.281C-2.219-.211-1.135 0 0 0" fill="#fff" fill-opacity="1" fill-rule="nonzero" stroke="none"/></g><g transform="translate(60.462 12.36)" id="g44"><path id="path46" d="M0 0l-5.175 21.365c-.361 2.347-2.593 6.651-8.599 6.651a1.5 1.5 0 110-3c4.856 0 5.575-3.729 5.639-4.143l4.767-19.701h-2.073c-.445 3.557-2.453 6.628-5.305 8.522a2.504 2.504 0 01-1.529-2.303c0-.088-.015-.171-.026-.256A9.036 9.036 0 00-8.472 1.17c.082-.488.135-.987.135-1.5 0-.512-.053-1.012-.135-1.5-.716-4.272-4.421-7.53-8.896-7.53-4.475 0-8.181 3.258-8.896 7.53a9.035 9.035 0 00-.135 1.5c0 .513.053 1.012.135 1.5.147.879.427 1.712.808 2.484a1.994 1.994 0 00-1.852 1.985.739.739 0 01-.192.488 11.95 11.95 0 01-1.795-4.957h-1.82c-.741 5.927-5.802 10.531-11.927 10.531S-54.227 7.099-54.969 1.172h-2.073l4.767 19.701c.063.414.783 4.143 5.639 4.143a1.5 1.5 0 110 3c-6.006 0-8.238-4.304-8.599-6.651L-60.41 0c-.266-1.109.531-1.826 1.426-1.826.012 0 .023-.004.036-.004h3.982c.079-.629.215-1.237.387-1.831a.722.722 0 01.102.353 2 2 0 002 2c.166 0 .324-.024.478-.062a8.324 8.324 0 00-.074 1.042c0 .512.053 1.011.135 1.5.715 4.27 4.421 7.531 8.896 7.531 4.475 0 8.18-3.261 8.896-7.531.082-.489.135-.988.135-1.5s-.053-1.012-.135-1.5c-.715-4.273-4.421-7.531-8.896-7.531-2.022 0-3.883.67-5.386 1.794-.35-.302-.8-.492-1.299-.492a.75.75 0 01-.749-.748 1.98 1.98 0 00-.176-.811 11.94 11.94 0 017.614-2.743c6.125 0 11.185 4.603 11.927 10.529h1.814c.742-5.926 5.802-10.529 11.927-10.529S-6.184-7.756-5.443-1.83h3.981c.012 0 .023.005.036.005C-.531-1.826.266-1.109 0 0" fill="#fff" fill-opacity="1" fill-rule="nonzero" stroke="none"/></g><g transform="translate(50.686 24.25)" id="g48"><path id="path50" d="M0 0a4.499 4.499 0 00-4.499 4.499A4.499 4.499 0 00-8.998 0a4.499 4.499 0 004.499-4.499A4.498 4.498 0 000 0" fill="#d22856" fill-opacity="1" fill-rule="nonzero" stroke="none"/></g><g transform="translate(37.904 20.749)" id="g52"><path id="path54" d="M0 0a2.748 2.748 0 00-2.749 2.749A2.748 2.748 0 00-5.498 0a2.747 2.747 0 002.749-2.749A2.748 2.748 0 000 0" fill="#d22856" fill-opacity="1" fill-rule="nonzero" stroke="none"/></g><g transform="translate(10.734 6.303)" id="g56"><path id="path58" d="M0 0a2.748 2.748 0 00-2.749 2.75c0-1.52-1.23-2.75-2.749-2.75a2.747 2.747 0 002.749-2.748A2.748 2.748 0 000 0" fill="#d22856" fill-opacity="1" fill-rule="nonzero" stroke="none"/></g></g></g></g></svg>