<svg xmlns="http://www.w3.org/2000/svg" height="18.62" width="23.984" xml:space="preserve" id="svg2" version="1.1"><defs id="defs6"><clipPath id="clipPath18" clipPathUnits="userSpaceOnUse"><path id="path16" d="M0 13.965h17.988V0H0z"/></clipPath></defs><g transform="matrix(1.33333 0 0 -1.33333 0 18.62)" id="g10"><g id="g12"><g clip-path="url(#clipPath18)" id="g14"><g transform="translate(14.914 12.151)" id="g20"><path id="path22" d="M0 0c1.197.998.902 1.814-.657 1.814h-10.526c-1.56 0-1.854-.816-.657-1.814l3.742-3.118c1.198-.998 3.159-.998 4.355 0z" fill="#d22856" fill-opacity="1" fill-rule="nonzero" stroke="none"/></g><g transform="translate(11.913 6.921)" id="g24"><path id="path26" d="M0 0a178.208 178.208 0 00-2.218-1.835l-.02-.014a1.011 1.011 0 00-.235-.136c-.033-.015-.066-.034-.1-.048a1.145 1.145 0 00-.335-.058l-.01-.002h-.002l-.01.002a1.215 1.215 0 00-.335.058c-.034.014-.068.033-.1.048a1.054 1.054 0 00-.235.136l-.02.014c-.022.011-1.02.837-2.218 1.835l-3.896 3.248c-1.2.998-2.179.539-2.179-1.02v-6.315a2.842 2.842 0 012.835-2.834H3.24a2.842 2.842 0 012.835 2.834v6.315c0 1.559-.979 2.018-2.178 1.02z" fill="#d22856" fill-opacity="1" fill-rule="nonzero" stroke="none"/></g></g></g></g></svg>