<svg xmlns="http://www.w3.org/2000/svg" height="26.26" width="26.263" xml:space="preserve" id="svg2" version="1.1"><defs id="defs6"><clipPath id="clipPath18" clipPathUnits="userSpaceOnUse"><path id="path16" d="M0 19.695h19.697V0H0z"/></clipPath></defs><g transform="matrix(1.33333 0 0 -1.33333 0 26.26)" id="g10"><g id="g12"><g clip-path="url(#clipPath18)" id="g14"><g transform="translate(9.849 10.668)" id="g20"><path id="path22" d="M0 0a3.28 3.28 0 003.281-3.282A3.28 3.28 0 000-6.564a3.28 3.28 0 00-3.281 3.282A3.28 3.28 0 000 0m-1.232 2.053v1.023a1.024 1.024 0 11-2.049 0V2.053L-8.818-3.86a2.056 2.056 0 01-.62-1.47v-1.647c0-.907.735-1.642 1.641-1.642h.411v-1.024a1.026 1.026 0 012.051 0v1.024H5.334v-1.024a1.025 1.025 0 112.051 0v1.024h.411c.904 0 1.64.734 1.64 1.642v1.647c0 .575-.237 1.094-.619 1.47L3.281 2.053v1.023a1.025 1.025 0 11-2.051 0V2.053zM0-1.643a1.64 1.64 0 110-3.281 1.642 1.642 0 010 3.281m0 10.67c-3.509 0-7.025-.628-8.303-1.878-1.057-1.04-1.412-2.874-1.529-4.035 0 0-.017-.114-.017-.165a.82.82 0 01.82-.819c.053 0 2.028.161 3.217.259.03.004.059.007.086.016a.821.821 0 01.801.82l.003 1.617c0 .5.407.901.907.901h8.028a.904.904 0 00.907-.901l.003-1.617a.82.82 0 01.802-.821.557.557 0 01.085-.016C7 2.29 8.974 2.129 9.026 2.129c.452 0 .823.365.823.819 0 .051-.018.165-.018.165-.118 1.161-.473 2.995-1.53 4.035C7.024 8.399 3.508 9.027 0 9.027" fill="#d22856" fill-opacity="1" fill-rule="nonzero" stroke="none"/></g></g></g></g></svg>