<svg xmlns="http://www.w3.org/2000/svg" height="85.052" width="104.896" xml:space="preserve" id="svg2" version="1.1"><defs id="defs6"><clipPath id="clipPath18" clipPathUnits="userSpaceOnUse"><path id="path16" d="M0 63.789h78.672V0H0z"/></clipPath></defs><g transform="matrix(1.33333 0 0 -1.33333 0 85.052)" id="g10"><g id="g12"><g clip-path="url(#clipPath18)" id="g14"><g transform="translate(34.967 56.726)" id="g20"><path id="path22" d="M0 0l-4.254 7.063C-6.695 5.568-34.967-5.144-34.967-32.554c0-7.231.336-24.172 18.9-24.172 11.187 0 13.94 10.279 13.94 13.584 0 21.977-21.382 14.178-21.382 14.178C-23.509-10.894-3.704-2.121 0 0" fill="#efefef" fill-opacity="1" fill-rule="nonzero" stroke="none"/></g><g transform="translate(78.672 56.726)" id="g24"><path id="path26" d="M0 0l-4.254 7.063C-6.693 5.568-34.967-5.144-34.967-32.554c0-7.231.337-24.172 18.901-24.172 11.186 0 13.938 10.279 13.938 13.584 0 21.977-21.381 14.178-21.381 14.178C-23.507-10.894-3.703-2.121 0 0" fill="#efefef" fill-opacity="1" fill-rule="nonzero" stroke="none"/></g></g></g></g></svg>