<svg xmlns="http://www.w3.org/2000/svg" height="19.549" width="23.333" xml:space="preserve" id="svg2" version="1.1"><defs id="defs6"><clipPath id="clipPath18" clipPathUnits="userSpaceOnUse"><path id="path16" d="M0 14.662h17.5V0H0z"/></clipPath></defs><g transform="matrix(1.33333 0 0 -1.33333 0 19.55)" id="g10"><g id="g12"><g clip-path="url(#clipPath18)" id="g14"><g transform="translate(11.283 14.51)" id="g20"><path id="path22" d="M0 0c1.736.485 3.074-.263 3.685-1.151.694.226 1.372.47 2.072.691-.004-.841-.538-1.478-.883-1.727.704-.166 1.343.48 1.343.48-.175-.976-1.035-1.746-1.612-1.977-.238-6.592-3.271-10.956-10.381-10.823h-.46c-.422 0-4.29.449-5.047 1.843 2.341-.192 4.011.412 4.835 1.149-.989.293-2.761.465-3.07 2.881.362-.104.583-.222 1.228-.116-1.236.836-2.608 1.537-2.532 3.685.294-.32 1.1-.523 1.381-.461-.725.235-2.03 3.281-.921 4.836 1.873-1.811 3.848-3.521 7.369-3.685C-2.777-2.135-1.822-.634 0 0" fill="#d22856" fill-opacity="1" fill-rule="nonzero" stroke="none"/></g></g></g></g></svg>